%TF.GenerationSoftware,KiCad,Pcbnew,10.0.3*%
%TF.CreationDate,2026-08-02T18:57:04-04:00*%
%TF.ProjectId,TVBGONE,54564247-4f4e-4452-9e6b-696361645f70,rev?*%
%TF.SameCoordinates,Original*%
%TF.FileFunction,Copper,L1,Top*%
%TF.FilePolarity,Positive*%
%FSLAX46Y46*%
G04 Gerber Fmt 4.6, Leading zero omitted, Abs format (unit mm)*
G04 Created by KiCad (PCBNEW 10.0.3) date 2026-08-02 18:57:04*
%MOMM*%
%LPD*%
G01*
G04 APERTURE LIST*
%TA.AperFunction,NonConductor*%
%ADD10C,0.399999*%
%TD*%
%TA.AperFunction,NonConductor*%
%ADD11C,0.599999*%
%TD*%
%TA.AperFunction,NonConductor*%
%ADD12C,0.000000*%
%TD*%
%TA.AperFunction,NonConductor*%
%ADD13C,0.299999*%
%TD*%
%ADD14C,0.299999*%
%ADD15C,0.270125*%
%TA.AperFunction,NonConductor*%
%ADD16C,0.499999*%
%TD*%
%TA.AperFunction,NonConductor*%
%ADD17C,0.292058*%
%TD*%
%ADD18C,0.499999*%
%TA.AperFunction,NonConductor*%
%ADD19C,0.342095*%
%TD*%
%TA.AperFunction,NonConductor*%
%ADD20C,0.313238*%
%TD*%
%ADD21C,0.515511*%
%ADD22C,0.399999*%
%TA.AperFunction,NonConductor*%
%ADD23C,0.799999*%
%TD*%
%TA.AperFunction,ComponentPad*%
%ADD24C,5.700000*%
%TD*%
G04 APERTURE END LIST*
D10*
X119740566Y-32236663D02*
X119740566Y-35236663D01*
D11*
X118243366Y-33812863D02*
X118241966Y-35310063D01*
X113217047Y-62746252D02*
X108717047Y-62746252D01*
X116217047Y-58246252D02*
X116217047Y-62246252D01*
D12*
%TA.AperFunction,NonConductor*%
G36*
X122717047Y-43246254D02*
G01*
X121217047Y-43246254D01*
X121217047Y-39246254D01*
X122717047Y-39246254D01*
X122717047Y-43246254D01*
G37*
%TD.AperFunction*%
%TA.AperFunction,NonConductor*%
G36*
X122717047Y-48246252D02*
G01*
X121217047Y-48246252D01*
X121217047Y-44246252D01*
X122717047Y-44246252D01*
X122717047Y-48246252D01*
G37*
%TD.AperFunction*%
D11*
X118717047Y-54246252D02*
X114717047Y-58246252D01*
D12*
%TA.AperFunction,NonConductor*%
G36*
X72247927Y-69647034D02*
G01*
X72278397Y-69649351D01*
X72308425Y-69653167D01*
X72337972Y-69658443D01*
X72367000Y-69665143D01*
X72395473Y-69673228D01*
X72423351Y-69682661D01*
X72450598Y-69693404D01*
X72477176Y-69705420D01*
X72503047Y-69718670D01*
X72528173Y-69733117D01*
X72552517Y-69748724D01*
X72576040Y-69765452D01*
X72598707Y-69783264D01*
X72620477Y-69802122D01*
X72641315Y-69821989D01*
X72661182Y-69842827D01*
X72680040Y-69864597D01*
X72697852Y-69887264D01*
X72714580Y-69910788D01*
X72730187Y-69935131D01*
X72744634Y-69960258D01*
X72757884Y-69986129D01*
X72769900Y-70012707D01*
X72780643Y-70039954D01*
X72790076Y-70067832D01*
X72798161Y-70096305D01*
X72804861Y-70125334D01*
X72810138Y-70154881D01*
X72813953Y-70184909D01*
X72816270Y-70215380D01*
X72817051Y-70246256D01*
X72816270Y-70277132D01*
X72813953Y-70307602D01*
X72810138Y-70337630D01*
X72804861Y-70367177D01*
X72798161Y-70396205D01*
X72790076Y-70424677D01*
X72780643Y-70452556D01*
X72769900Y-70479803D01*
X72757884Y-70506381D01*
X72744634Y-70532251D01*
X72730187Y-70557377D01*
X72714580Y-70581721D01*
X72697852Y-70605245D01*
X72680040Y-70627911D01*
X72661182Y-70649682D01*
X72641315Y-70670519D01*
X72620477Y-70690386D01*
X72598707Y-70709244D01*
X72576040Y-70727056D01*
X72552517Y-70743784D01*
X72528173Y-70759391D01*
X72503047Y-70773838D01*
X72477176Y-70787088D01*
X72450598Y-70799104D01*
X72423351Y-70809847D01*
X72395473Y-70819280D01*
X72367000Y-70827365D01*
X72337972Y-70834065D01*
X72308425Y-70839341D01*
X72278397Y-70843157D01*
X72247927Y-70845474D01*
X72217051Y-70846254D01*
X72186175Y-70845474D01*
X72155704Y-70843157D01*
X72125677Y-70839341D01*
X72096130Y-70834065D01*
X72067101Y-70827365D01*
X72038629Y-70819280D01*
X72010751Y-70809847D01*
X71983504Y-70799104D01*
X71956926Y-70787088D01*
X71931055Y-70773838D01*
X71905929Y-70759391D01*
X71881585Y-70743784D01*
X71858061Y-70727056D01*
X71835395Y-70709244D01*
X71813624Y-70690386D01*
X71792787Y-70670519D01*
X71772920Y-70649682D01*
X71754062Y-70627911D01*
X71736250Y-70605245D01*
X71719521Y-70581721D01*
X71703915Y-70557377D01*
X71689468Y-70532251D01*
X71676217Y-70506381D01*
X71664202Y-70479803D01*
X71653459Y-70452556D01*
X71644026Y-70424677D01*
X71635940Y-70396205D01*
X71629241Y-70367177D01*
X71623964Y-70337630D01*
X71620149Y-70307602D01*
X71617832Y-70277132D01*
X71617051Y-70246256D01*
X71617832Y-70215380D01*
X71620149Y-70184909D01*
X71623964Y-70154881D01*
X71629241Y-70125334D01*
X71635940Y-70096305D01*
X71644026Y-70067832D01*
X71653459Y-70039954D01*
X71664202Y-70012707D01*
X71676217Y-69986129D01*
X71689468Y-69960258D01*
X71703915Y-69935131D01*
X71719521Y-69910788D01*
X71736250Y-69887264D01*
X71754062Y-69864597D01*
X71772920Y-69842827D01*
X71792787Y-69821989D01*
X71813624Y-69802122D01*
X71835395Y-69783264D01*
X71858061Y-69765452D01*
X71881585Y-69748724D01*
X71905929Y-69733117D01*
X71931055Y-69718670D01*
X71956926Y-69705420D01*
X71983504Y-69693404D01*
X72010751Y-69682661D01*
X72038629Y-69673228D01*
X72067101Y-69665143D01*
X72096130Y-69658443D01*
X72125677Y-69653167D01*
X72155704Y-69649351D01*
X72186175Y-69647034D01*
X72217051Y-69646254D01*
X72247927Y-69647034D01*
G37*
%TD.AperFunction*%
%TA.AperFunction,NonConductor*%
G36*
X105258215Y-71447294D02*
G01*
X105298843Y-71450383D01*
X105338880Y-71455471D01*
X105378276Y-71462506D01*
X105416980Y-71471439D01*
X105454944Y-71482219D01*
X105492115Y-71494797D01*
X105528445Y-71509121D01*
X105563882Y-71525142D01*
X105598376Y-71542809D01*
X105631878Y-71562072D01*
X105664337Y-71582881D01*
X105695702Y-71605185D01*
X105725923Y-71628935D01*
X105754951Y-71654079D01*
X105782735Y-71680568D01*
X105809224Y-71708352D01*
X105834368Y-71737380D01*
X105858118Y-71767601D01*
X105880422Y-71798966D01*
X105901231Y-71831425D01*
X105920494Y-71864927D01*
X105938161Y-71899421D01*
X105954182Y-71934858D01*
X105968506Y-71971188D01*
X105981084Y-72008359D01*
X105991864Y-72046323D01*
X106000797Y-72085027D01*
X106007832Y-72124423D01*
X106012920Y-72164460D01*
X106016009Y-72205088D01*
X106017050Y-72246256D01*
X106016009Y-72287424D01*
X106012920Y-72328051D01*
X106007832Y-72368087D01*
X106000797Y-72407483D01*
X105991864Y-72446188D01*
X105981084Y-72484151D01*
X105968506Y-72521322D01*
X105954182Y-72557651D01*
X105938161Y-72593088D01*
X105920494Y-72627582D01*
X105901231Y-72661084D01*
X105880422Y-72693542D01*
X105858118Y-72724907D01*
X105834368Y-72755129D01*
X105809224Y-72784157D01*
X105782735Y-72811940D01*
X105754951Y-72838429D01*
X105725923Y-72863574D01*
X105695702Y-72887323D01*
X105664337Y-72909627D01*
X105631878Y-72930436D01*
X105598376Y-72949699D01*
X105563882Y-72967366D01*
X105528445Y-72983387D01*
X105492115Y-72997711D01*
X105454944Y-73010289D01*
X105416980Y-73021069D01*
X105378276Y-73030002D01*
X105338880Y-73037037D01*
X105298843Y-73042125D01*
X105258215Y-73045214D01*
X105217047Y-73046255D01*
X105175879Y-73045214D01*
X105135252Y-73042125D01*
X105095216Y-73037037D01*
X105055820Y-73030002D01*
X105017115Y-73021069D01*
X104979152Y-73010289D01*
X104941981Y-72997711D01*
X104905652Y-72983387D01*
X104870215Y-72967366D01*
X104835721Y-72949699D01*
X104802219Y-72930436D01*
X104769761Y-72909627D01*
X104738396Y-72887323D01*
X104708174Y-72863574D01*
X104679146Y-72838429D01*
X104651363Y-72811940D01*
X104624874Y-72784157D01*
X104599729Y-72755129D01*
X104575980Y-72724907D01*
X104553676Y-72693542D01*
X104532867Y-72661084D01*
X104513604Y-72627582D01*
X104495937Y-72593088D01*
X104479916Y-72557651D01*
X104465592Y-72521322D01*
X104453014Y-72484151D01*
X104442234Y-72446188D01*
X104433301Y-72407483D01*
X104426266Y-72368087D01*
X104421178Y-72328051D01*
X104418089Y-72287424D01*
X104417048Y-72246256D01*
X104418089Y-72205088D01*
X104421178Y-72164460D01*
X104426266Y-72124423D01*
X104433301Y-72085027D01*
X104442234Y-72046323D01*
X104453014Y-72008359D01*
X104465592Y-71971188D01*
X104479916Y-71934858D01*
X104495937Y-71899421D01*
X104513604Y-71864927D01*
X104532867Y-71831425D01*
X104553676Y-71798966D01*
X104575980Y-71767601D01*
X104599729Y-71737380D01*
X104624874Y-71708352D01*
X104651363Y-71680568D01*
X104679146Y-71654079D01*
X104708174Y-71628935D01*
X104738396Y-71605185D01*
X104769761Y-71582881D01*
X104802219Y-71562072D01*
X104835721Y-71542809D01*
X104870215Y-71525142D01*
X104905652Y-71509121D01*
X104941981Y-71494797D01*
X104979152Y-71482219D01*
X105017115Y-71471439D01*
X105055820Y-71462506D01*
X105095216Y-71455471D01*
X105135252Y-71450383D01*
X105175879Y-71447294D01*
X105217047Y-71446253D01*
X105258215Y-71447294D01*
G37*
%TD.AperFunction*%
D11*
X116217047Y-62246252D02*
X114217047Y-64246256D01*
D13*
X81462766Y-62367659D02*
X81462766Y-64367663D01*
X75138166Y-53709063D02*
X75138166Y-51709063D01*
D12*
%TA.AperFunction,NonConductor*%
G36*
X73737635Y-67346775D02*
G01*
X73757948Y-67348319D01*
X73777967Y-67350863D01*
X73797665Y-67354381D01*
X73817017Y-67358847D01*
X73835998Y-67364237D01*
X73854584Y-67370526D01*
X73872749Y-67377688D01*
X73890467Y-67385698D01*
X73907715Y-67394532D01*
X73924465Y-67404163D01*
X73940695Y-67414568D01*
X73956377Y-67425720D01*
X73971488Y-67437595D01*
X73986002Y-67450167D01*
X73999893Y-67463411D01*
X74013138Y-67477303D01*
X74025710Y-67491817D01*
X74037585Y-67506928D01*
X74048737Y-67522610D01*
X74059141Y-67538840D01*
X74068773Y-67555590D01*
X74077606Y-67572838D01*
X74085617Y-67590556D01*
X74092779Y-67608721D01*
X74099067Y-67627307D01*
X74104458Y-67646289D01*
X74108924Y-67665641D01*
X74112442Y-67685339D01*
X74114985Y-67705358D01*
X74116530Y-67725672D01*
X74117051Y-67746256D01*
X74116530Y-67766840D01*
X74114985Y-67787154D01*
X74112442Y-67807172D01*
X74108924Y-67826870D01*
X74104458Y-67846223D01*
X74099067Y-67865204D01*
X74092779Y-67883790D01*
X74085617Y-67901955D01*
X74077606Y-67919673D01*
X74068773Y-67936920D01*
X74059141Y-67953671D01*
X74048737Y-67969900D01*
X74037585Y-67985583D01*
X74025710Y-68000693D01*
X74013138Y-68015207D01*
X73999893Y-68029098D01*
X73986002Y-68042343D01*
X73971488Y-68054915D01*
X73956377Y-68066789D01*
X73940695Y-68077941D01*
X73924465Y-68088345D01*
X73907715Y-68097977D01*
X73890467Y-68106810D01*
X73872749Y-68114820D01*
X73854584Y-68121982D01*
X73835998Y-68128271D01*
X73817017Y-68133661D01*
X73797665Y-68138127D01*
X73777967Y-68141645D01*
X73757948Y-68144188D01*
X73737635Y-68145733D01*
X73717051Y-68146254D01*
X73696467Y-68145733D01*
X73676153Y-68144188D01*
X73656134Y-68141645D01*
X73636437Y-68138127D01*
X73617084Y-68133661D01*
X73598103Y-68128271D01*
X73579517Y-68121982D01*
X73561353Y-68114820D01*
X73543634Y-68106810D01*
X73526387Y-68097977D01*
X73509636Y-68088345D01*
X73493407Y-68077941D01*
X73477724Y-68066789D01*
X73462614Y-68054915D01*
X73448100Y-68042343D01*
X73434208Y-68029098D01*
X73420963Y-68015207D01*
X73408391Y-68000693D01*
X73396517Y-67985583D01*
X73385365Y-67969900D01*
X73374960Y-67953671D01*
X73365329Y-67936920D01*
X73356495Y-67919673D01*
X73348485Y-67901955D01*
X73341323Y-67883790D01*
X73335034Y-67865204D01*
X73329644Y-67846223D01*
X73325177Y-67826870D01*
X73321660Y-67807172D01*
X73319116Y-67787154D01*
X73317571Y-67766840D01*
X73317051Y-67746256D01*
X73317571Y-67725672D01*
X73319116Y-67705358D01*
X73321660Y-67685339D01*
X73325177Y-67665641D01*
X73329644Y-67646289D01*
X73335034Y-67627307D01*
X73341323Y-67608721D01*
X73348485Y-67590556D01*
X73356495Y-67572838D01*
X73365329Y-67555590D01*
X73374960Y-67538840D01*
X73385365Y-67522610D01*
X73396517Y-67506928D01*
X73408391Y-67491817D01*
X73420963Y-67477303D01*
X73434208Y-67463411D01*
X73448100Y-67450167D01*
X73462614Y-67437595D01*
X73477724Y-67425720D01*
X73493407Y-67414568D01*
X73509636Y-67404163D01*
X73526387Y-67394532D01*
X73543634Y-67385698D01*
X73561353Y-67377688D01*
X73579517Y-67370526D01*
X73598103Y-67364237D01*
X73617084Y-67358847D01*
X73636437Y-67354381D01*
X73656134Y-67350863D01*
X73676153Y-67348319D01*
X73696467Y-67346775D01*
X73717051Y-67346254D01*
X73737635Y-67346775D01*
G37*
%TD.AperFunction*%
%TA.AperFunction,NonConductor*%
G36*
X72217051Y-43246254D02*
G01*
X70717051Y-43246254D01*
X70717051Y-39246254D01*
X72217051Y-39246254D01*
X72217051Y-43246254D01*
G37*
%TD.AperFunction*%
%TA.AperFunction,NonConductor*%
G36*
X106758215Y-69447298D02*
G01*
X106798843Y-69450387D01*
X106838880Y-69455474D01*
X106878276Y-69462510D01*
X106916980Y-69471443D01*
X106954944Y-69482223D01*
X106992115Y-69494800D01*
X107028445Y-69509124D01*
X107063882Y-69525145D01*
X107098376Y-69542812D01*
X107131878Y-69562075D01*
X107164337Y-69582883D01*
X107195702Y-69605187D01*
X107225923Y-69628937D01*
X107254951Y-69654081D01*
X107282735Y-69680570D01*
X107309224Y-69708353D01*
X107334368Y-69737381D01*
X107358118Y-69767603D01*
X107380422Y-69798968D01*
X107401231Y-69831426D01*
X107420494Y-69864928D01*
X107438161Y-69899422D01*
X107454182Y-69934859D01*
X107468506Y-69971188D01*
X107481084Y-70008360D01*
X107491864Y-70046323D01*
X107500797Y-70085027D01*
X107507832Y-70124423D01*
X107512920Y-70164460D01*
X107516009Y-70205088D01*
X107517050Y-70246256D01*
X107516009Y-70287424D01*
X107512920Y-70328051D01*
X107507832Y-70368087D01*
X107500797Y-70407483D01*
X107491864Y-70446188D01*
X107481084Y-70484151D01*
X107468506Y-70521322D01*
X107454182Y-70557651D01*
X107438161Y-70593088D01*
X107420494Y-70627582D01*
X107401231Y-70661084D01*
X107380422Y-70693542D01*
X107358118Y-70724907D01*
X107334368Y-70755129D01*
X107309224Y-70784157D01*
X107282735Y-70811940D01*
X107254951Y-70838429D01*
X107225923Y-70863574D01*
X107195702Y-70887323D01*
X107164337Y-70909627D01*
X107131878Y-70930436D01*
X107098376Y-70949699D01*
X107063882Y-70967366D01*
X107028445Y-70983387D01*
X106992115Y-70997711D01*
X106954944Y-71010289D01*
X106916980Y-71021069D01*
X106878276Y-71030002D01*
X106838880Y-71037037D01*
X106798843Y-71042125D01*
X106758215Y-71045214D01*
X106717047Y-71046255D01*
X106675879Y-71045214D01*
X106635252Y-71042125D01*
X106595216Y-71037037D01*
X106555820Y-71030002D01*
X106517115Y-71021069D01*
X106479152Y-71010289D01*
X106441981Y-70997711D01*
X106405652Y-70983387D01*
X106370215Y-70967366D01*
X106335721Y-70949699D01*
X106302219Y-70930436D01*
X106269761Y-70909627D01*
X106238396Y-70887323D01*
X106208174Y-70863574D01*
X106179146Y-70838429D01*
X106151363Y-70811940D01*
X106124874Y-70784157D01*
X106099729Y-70755129D01*
X106075980Y-70724907D01*
X106053676Y-70693542D01*
X106032867Y-70661084D01*
X106013604Y-70627582D01*
X105995937Y-70593088D01*
X105979916Y-70557651D01*
X105965592Y-70521322D01*
X105953014Y-70484151D01*
X105942234Y-70446188D01*
X105933301Y-70407483D01*
X105926266Y-70368087D01*
X105921178Y-70328051D01*
X105918089Y-70287424D01*
X105917048Y-70246256D01*
X105918089Y-70205088D01*
X105921178Y-70164460D01*
X105926266Y-70124423D01*
X105933301Y-70085027D01*
X105942234Y-70046323D01*
X105953014Y-70008360D01*
X105965592Y-69971188D01*
X105979916Y-69934859D01*
X105995937Y-69899422D01*
X106013604Y-69864928D01*
X106032867Y-69831426D01*
X106053676Y-69798968D01*
X106075980Y-69767603D01*
X106099729Y-69737381D01*
X106124874Y-69708353D01*
X106151363Y-69680570D01*
X106179146Y-69654081D01*
X106208174Y-69628937D01*
X106238396Y-69605187D01*
X106269761Y-69582883D01*
X106302219Y-69562075D01*
X106335721Y-69542812D01*
X106370215Y-69525145D01*
X106405652Y-69509124D01*
X106441981Y-69494800D01*
X106479152Y-69482223D01*
X106517115Y-69471443D01*
X106555820Y-69462510D01*
X106595216Y-69455474D01*
X106635252Y-69450387D01*
X106675879Y-69447298D01*
X106717047Y-69446257D01*
X106758215Y-69447298D01*
G37*
%TD.AperFunction*%
D11*
X106717047Y-64746256D02*
X106717047Y-70246256D01*
X108217047Y-64246256D02*
X105217047Y-67246256D01*
X114217047Y-64246256D02*
X108217047Y-64246256D01*
X114717047Y-61246252D02*
X113217047Y-62746252D01*
D12*
%TA.AperFunction,NonConductor*%
G36*
X72217051Y-48246252D02*
G01*
X70717051Y-48246252D01*
X70717051Y-44246252D01*
X72217051Y-44246252D01*
X72217051Y-48246252D01*
G37*
%TD.AperFunction*%
D13*
X75217051Y-66246256D02*
X73717051Y-67746256D01*
D12*
%TA.AperFunction,NonConductor*%
G36*
X103217047Y-62746252D02*
G01*
X90217049Y-62746252D01*
X92217049Y-60746252D01*
X101217049Y-60746252D01*
X103217047Y-62746252D01*
G37*
%TD.AperFunction*%
D11*
X114717047Y-58246252D02*
X114717047Y-61246252D01*
X108717047Y-62746252D02*
X106717047Y-64746256D01*
X105217047Y-67246256D02*
X105217047Y-72246256D01*
D14*
X79462766Y-60386463D02*
X80529433Y-61453130D01*
X81462766Y-62386463D01*
D15*
X81460204Y-64395625D02*
X80459739Y-65396090D01*
X79659366Y-66196463D01*
D16*
X73258566Y-54318663D02*
X73258566Y-52318663D01*
D14*
X78116566Y-57319663D02*
X79183233Y-58386330D01*
X80116566Y-59319663D01*
D12*
%TA.AperFunction,NonConductor*%
G36*
X107217047Y-59246252D02*
G01*
X107217047Y-60246252D01*
X104217047Y-60246252D01*
X102217047Y-58246252D01*
X91217049Y-58246252D01*
X89217049Y-60246252D01*
X86217049Y-60246252D01*
X88217049Y-57246252D01*
X105217047Y-57246252D01*
X107217047Y-59246252D01*
G37*
%TD.AperFunction*%
D17*
X79650604Y-66246256D02*
X75269729Y-66246256D01*
D16*
X82217050Y-61246252D02*
X82217050Y-65246256D01*
X73258566Y-50251863D02*
X73258566Y-52251863D01*
D11*
X108226166Y-27952063D02*
X110139366Y-29595063D01*
D13*
X75123451Y-54329052D02*
X78123450Y-57329052D01*
D16*
X75207482Y-54315874D02*
X75207482Y-52315874D01*
D12*
%TA.AperFunction,NonConductor*%
G36*
X83747926Y-27647036D02*
G01*
X83778396Y-27649353D01*
X83808424Y-27653169D01*
X83837971Y-27658445D01*
X83866999Y-27665145D01*
X83895472Y-27673230D01*
X83923350Y-27682663D01*
X83950597Y-27693407D01*
X83977175Y-27705422D01*
X84003046Y-27718672D01*
X84028172Y-27733120D01*
X84052516Y-27748726D01*
X84076040Y-27765454D01*
X84098706Y-27783267D01*
X84120476Y-27802125D01*
X84141314Y-27821992D01*
X84161181Y-27842829D01*
X84180039Y-27864600D01*
X84197851Y-27887266D01*
X84214580Y-27910790D01*
X84230186Y-27935134D01*
X84244633Y-27960260D01*
X84257884Y-27986131D01*
X84269899Y-28012709D01*
X84280642Y-28039956D01*
X84290076Y-28067834D01*
X84298161Y-28096307D01*
X84304861Y-28125335D01*
X84310137Y-28154882D01*
X84313953Y-28184909D01*
X84316270Y-28215380D01*
X84317050Y-28246256D01*
X84316270Y-28277132D01*
X84313953Y-28307602D01*
X84310137Y-28337630D01*
X84304861Y-28367176D01*
X84298161Y-28396205D01*
X84290076Y-28424677D01*
X84280642Y-28452555D01*
X84269899Y-28479802D01*
X84257884Y-28506380D01*
X84244633Y-28532251D01*
X84230186Y-28557377D01*
X84214580Y-28581721D01*
X84197851Y-28605245D01*
X84180039Y-28627911D01*
X84161181Y-28649682D01*
X84141314Y-28670520D01*
X84120476Y-28690386D01*
X84098706Y-28709245D01*
X84076040Y-28727057D01*
X84052516Y-28743785D01*
X84028172Y-28759392D01*
X84003046Y-28773839D01*
X83977175Y-28787089D01*
X83950597Y-28799105D01*
X83923350Y-28809848D01*
X83895472Y-28819281D01*
X83866999Y-28827366D01*
X83837971Y-28834066D01*
X83808424Y-28839343D01*
X83778396Y-28843158D01*
X83747926Y-28845475D01*
X83717050Y-28846256D01*
X83686174Y-28845475D01*
X83655704Y-28843158D01*
X83625676Y-28839343D01*
X83596129Y-28834066D01*
X83567101Y-28827366D01*
X83538629Y-28819281D01*
X83510750Y-28809848D01*
X83483503Y-28799105D01*
X83456926Y-28787089D01*
X83431055Y-28773839D01*
X83405929Y-28759392D01*
X83381585Y-28743785D01*
X83358061Y-28727057D01*
X83335395Y-28709245D01*
X83313624Y-28690386D01*
X83292786Y-28670520D01*
X83272920Y-28649682D01*
X83254061Y-28627911D01*
X83236249Y-28605245D01*
X83219521Y-28581721D01*
X83203915Y-28557377D01*
X83189467Y-28532251D01*
X83176217Y-28506380D01*
X83164202Y-28479802D01*
X83153458Y-28452555D01*
X83144025Y-28424677D01*
X83135940Y-28396205D01*
X83129240Y-28367176D01*
X83123964Y-28337630D01*
X83120148Y-28307602D01*
X83117831Y-28277132D01*
X83117051Y-28246256D01*
X83117831Y-28215380D01*
X83120148Y-28184909D01*
X83123964Y-28154882D01*
X83129240Y-28125335D01*
X83135940Y-28096307D01*
X83144025Y-28067834D01*
X83153458Y-28039956D01*
X83164202Y-28012709D01*
X83176217Y-27986131D01*
X83189467Y-27960260D01*
X83203915Y-27935134D01*
X83219521Y-27910790D01*
X83236249Y-27887266D01*
X83254061Y-27864600D01*
X83272920Y-27842829D01*
X83292786Y-27821992D01*
X83313624Y-27802125D01*
X83335395Y-27783267D01*
X83358061Y-27765454D01*
X83381585Y-27748726D01*
X83405929Y-27733120D01*
X83431055Y-27718672D01*
X83456926Y-27705422D01*
X83483503Y-27693407D01*
X83510750Y-27682663D01*
X83538629Y-27673230D01*
X83567101Y-27665145D01*
X83596129Y-27658445D01*
X83625676Y-27653169D01*
X83655704Y-27649353D01*
X83686174Y-27647036D01*
X83717050Y-27646255D01*
X83747926Y-27647036D01*
G37*
%TD.AperFunction*%
D11*
X110139366Y-29595063D02*
X114304966Y-29595063D01*
D13*
X75112766Y-51951263D02*
X75112766Y-48951263D01*
D18*
X80217050Y-59246252D02*
X81283717Y-60312919D01*
X82217050Y-61246252D01*
D12*
%TA.AperFunction,NonConductor*%
G36*
X118253069Y-34547166D02*
G01*
X118288618Y-34549869D01*
X118323651Y-34554321D01*
X118358122Y-34560477D01*
X118391989Y-34568293D01*
X118425206Y-34577726D01*
X118457731Y-34588731D01*
X118489519Y-34601264D01*
X118520527Y-34615283D01*
X118550709Y-34630741D01*
X118580023Y-34647596D01*
X118608425Y-34665804D01*
X118635869Y-34685320D01*
X118662313Y-34706101D01*
X118687712Y-34728102D01*
X118712023Y-34751280D01*
X118735201Y-34775591D01*
X118757202Y-34800990D01*
X118777983Y-34827434D01*
X118797499Y-34854878D01*
X118815707Y-34883280D01*
X118832562Y-34912594D01*
X118848020Y-34942776D01*
X118862039Y-34973784D01*
X118874572Y-35005572D01*
X118885577Y-35038097D01*
X118895010Y-35071314D01*
X118902826Y-35105181D01*
X118908982Y-35139652D01*
X118913434Y-35174685D01*
X118916137Y-35210234D01*
X118917048Y-35246256D01*
X118916137Y-35282278D01*
X118913434Y-35317827D01*
X118908982Y-35352859D01*
X118902826Y-35387330D01*
X118895010Y-35421196D01*
X118885577Y-35454414D01*
X118874572Y-35486939D01*
X118862039Y-35518727D01*
X118848020Y-35549734D01*
X118832562Y-35579917D01*
X118815707Y-35609231D01*
X118797499Y-35637632D01*
X118777983Y-35665076D01*
X118757202Y-35691520D01*
X118735201Y-35716919D01*
X118712023Y-35741230D01*
X118687712Y-35764408D01*
X118662313Y-35786409D01*
X118635869Y-35807190D01*
X118608425Y-35826706D01*
X118580023Y-35844913D01*
X118550709Y-35861769D01*
X118520527Y-35877227D01*
X118489519Y-35891245D01*
X118457731Y-35903779D01*
X118425206Y-35914784D01*
X118391989Y-35924217D01*
X118358122Y-35932033D01*
X118323651Y-35938189D01*
X118288618Y-35942641D01*
X118253069Y-35945344D01*
X118217047Y-35946255D01*
X118181025Y-35945344D01*
X118145476Y-35942641D01*
X118110444Y-35938189D01*
X118075972Y-35932033D01*
X118042106Y-35924217D01*
X118008888Y-35914784D01*
X117976363Y-35903779D01*
X117944575Y-35891245D01*
X117913568Y-35877227D01*
X117883385Y-35861769D01*
X117854071Y-35844913D01*
X117825670Y-35826706D01*
X117798225Y-35807190D01*
X117771781Y-35786409D01*
X117746382Y-35764408D01*
X117722072Y-35741230D01*
X117698894Y-35716919D01*
X117676892Y-35691520D01*
X117656112Y-35665076D01*
X117636595Y-35637632D01*
X117618388Y-35609231D01*
X117601533Y-35579917D01*
X117586074Y-35549734D01*
X117572056Y-35518727D01*
X117559522Y-35486939D01*
X117548517Y-35454414D01*
X117539084Y-35421196D01*
X117531268Y-35387330D01*
X117525112Y-35352859D01*
X117520660Y-35317827D01*
X117517957Y-35282278D01*
X117517046Y-35246256D01*
X117517957Y-35210234D01*
X117520660Y-35174685D01*
X117525112Y-35139652D01*
X117531268Y-35105181D01*
X117539084Y-35071314D01*
X117548517Y-35038097D01*
X117559522Y-35005572D01*
X117572056Y-34973784D01*
X117586074Y-34942776D01*
X117601533Y-34912594D01*
X117618388Y-34883280D01*
X117636595Y-34854878D01*
X117656112Y-34827434D01*
X117676892Y-34800990D01*
X117698894Y-34775591D01*
X117722072Y-34751280D01*
X117746382Y-34728102D01*
X117771781Y-34706101D01*
X117798225Y-34685320D01*
X117825670Y-34665804D01*
X117854071Y-34647596D01*
X117883385Y-34630741D01*
X117913568Y-34615283D01*
X117944575Y-34601264D01*
X117976363Y-34588731D01*
X118008888Y-34577726D01*
X118042106Y-34568293D01*
X118075972Y-34560477D01*
X118110444Y-34554321D01*
X118145476Y-34549869D01*
X118181025Y-34547166D01*
X118217047Y-34546255D01*
X118253069Y-34547166D01*
G37*
%TD.AperFunction*%
D10*
X111726166Y-28452063D02*
X118226166Y-28452063D01*
X114217047Y-16246256D02*
X110217047Y-20246255D01*
D19*
X110217047Y-20246255D02*
X110139366Y-26941232D01*
D11*
X114304966Y-29595063D02*
X118243366Y-33812863D01*
D10*
X110162166Y-26940063D02*
X111662166Y-28440063D01*
D11*
X112217047Y-16246256D02*
X108217047Y-20246255D01*
D16*
X82217050Y-65246256D02*
X79217050Y-68246256D01*
X73258566Y-54309263D02*
X76258566Y-57309263D01*
D20*
X87126966Y-25937463D02*
X84777683Y-28286747D01*
D16*
X74217051Y-68246256D02*
X72217051Y-70246256D01*
D12*
%TA.AperFunction,NonConductor*%
G36*
X75247926Y-30647036D02*
G01*
X75278397Y-30649353D01*
X75308425Y-30653169D01*
X75337971Y-30658445D01*
X75367000Y-30665145D01*
X75395472Y-30673230D01*
X75423351Y-30682663D01*
X75450598Y-30693406D01*
X75477175Y-30705422D01*
X75503046Y-30718672D01*
X75528172Y-30733119D01*
X75552516Y-30748726D01*
X75576040Y-30765454D01*
X75598706Y-30783266D01*
X75620477Y-30802125D01*
X75641315Y-30821991D01*
X75661181Y-30842829D01*
X75680040Y-30864600D01*
X75697852Y-30887266D01*
X75714580Y-30910790D01*
X75730186Y-30935134D01*
X75744634Y-30960260D01*
X75757884Y-30986131D01*
X75769899Y-31012708D01*
X75780643Y-31039955D01*
X75790076Y-31067834D01*
X75798161Y-31096306D01*
X75804861Y-31125335D01*
X75810137Y-31154882D01*
X75813953Y-31184909D01*
X75816270Y-31215380D01*
X75817050Y-31246256D01*
X75816270Y-31277132D01*
X75813953Y-31307602D01*
X75810137Y-31337630D01*
X75804861Y-31367176D01*
X75798161Y-31396205D01*
X75790076Y-31424677D01*
X75780643Y-31452555D01*
X75769899Y-31479802D01*
X75757884Y-31506380D01*
X75744634Y-31532251D01*
X75730186Y-31557377D01*
X75714580Y-31581721D01*
X75697852Y-31605245D01*
X75680040Y-31627911D01*
X75661181Y-31649682D01*
X75641315Y-31670520D01*
X75620477Y-31690386D01*
X75598706Y-31709245D01*
X75576040Y-31727057D01*
X75552516Y-31743785D01*
X75528172Y-31759392D01*
X75503046Y-31773839D01*
X75477175Y-31787089D01*
X75450598Y-31799105D01*
X75423351Y-31809848D01*
X75395472Y-31819281D01*
X75367000Y-31827366D01*
X75337971Y-31834066D01*
X75308425Y-31839343D01*
X75278397Y-31843158D01*
X75247926Y-31845475D01*
X75217051Y-31846256D01*
X75186175Y-31845475D01*
X75155704Y-31843158D01*
X75125676Y-31839343D01*
X75096130Y-31834066D01*
X75067101Y-31827366D01*
X75038629Y-31819281D01*
X75010750Y-31809848D01*
X74983503Y-31799105D01*
X74956926Y-31787089D01*
X74931055Y-31773839D01*
X74905929Y-31759392D01*
X74881585Y-31743785D01*
X74858061Y-31727057D01*
X74835395Y-31709245D01*
X74813624Y-31690386D01*
X74792787Y-31670520D01*
X74772920Y-31649682D01*
X74754061Y-31627911D01*
X74736249Y-31605245D01*
X74719521Y-31581721D01*
X74703915Y-31557377D01*
X74689467Y-31532251D01*
X74676217Y-31506380D01*
X74664202Y-31479802D01*
X74653458Y-31452555D01*
X74644025Y-31424677D01*
X74635940Y-31396205D01*
X74629240Y-31367176D01*
X74623964Y-31337630D01*
X74620148Y-31307602D01*
X74617831Y-31277132D01*
X74617051Y-31246256D01*
X74617831Y-31215380D01*
X74620148Y-31184909D01*
X74623964Y-31154882D01*
X74629240Y-31125335D01*
X74635940Y-31096306D01*
X74644025Y-31067834D01*
X74653458Y-31039955D01*
X74664202Y-31012708D01*
X74676217Y-30986131D01*
X74689467Y-30960260D01*
X74703915Y-30935134D01*
X74719521Y-30910790D01*
X74736249Y-30887266D01*
X74754061Y-30864600D01*
X74772920Y-30842829D01*
X74792787Y-30821991D01*
X74813624Y-30802125D01*
X74835395Y-30783266D01*
X74858061Y-30765454D01*
X74881585Y-30748726D01*
X74905929Y-30733119D01*
X74931055Y-30718672D01*
X74956926Y-30705422D01*
X74983503Y-30693406D01*
X75010750Y-30682663D01*
X75038629Y-30673230D01*
X75067101Y-30665145D01*
X75096130Y-30658445D01*
X75125676Y-30653169D01*
X75155704Y-30649353D01*
X75186175Y-30647036D01*
X75217051Y-30646255D01*
X75247926Y-30647036D01*
G37*
%TD.AperFunction*%
D10*
X119740566Y-29974663D02*
X119740566Y-32974663D01*
D21*
X77795034Y-58873826D02*
X79032266Y-60111057D01*
X79857082Y-60935874D01*
D16*
X76195566Y-57271663D02*
X78195565Y-59271663D01*
D10*
X118226166Y-28452063D02*
X119726166Y-29952063D01*
D12*
%TA.AperFunction,NonConductor*%
G36*
X119742777Y-34746906D02*
G01*
X119768169Y-34748837D01*
X119793192Y-34752017D01*
X119817815Y-34756414D01*
X119842005Y-34761997D01*
X119865732Y-34768735D01*
X119888964Y-34776595D01*
X119911670Y-34785548D01*
X119933818Y-34795561D01*
X119955377Y-34806603D01*
X119976315Y-34818642D01*
X119996602Y-34831648D01*
X120016205Y-34845588D01*
X120035094Y-34860431D01*
X120053236Y-34876146D01*
X120070600Y-34892702D01*
X120087156Y-34910066D01*
X120102871Y-34928209D01*
X120117715Y-34947097D01*
X120131655Y-34966700D01*
X120144660Y-34986987D01*
X120156700Y-35007925D01*
X120167742Y-35029484D01*
X120177755Y-35051633D01*
X120186707Y-35074338D01*
X120194568Y-35097570D01*
X120201306Y-35121297D01*
X120206889Y-35145488D01*
X120211286Y-35170110D01*
X120214466Y-35195133D01*
X120216397Y-35220526D01*
X120217047Y-35246256D01*
X120216397Y-35271986D01*
X120214466Y-35297378D01*
X120211286Y-35322401D01*
X120206889Y-35347023D01*
X120201306Y-35371214D01*
X120194568Y-35394940D01*
X120186707Y-35418172D01*
X120177755Y-35440878D01*
X120167742Y-35463026D01*
X120156700Y-35484585D01*
X120144660Y-35505524D01*
X120131655Y-35525810D01*
X120117715Y-35545414D01*
X120102871Y-35564302D01*
X120087156Y-35582444D01*
X120070600Y-35599809D01*
X120053236Y-35616365D01*
X120035094Y-35632080D01*
X120016205Y-35646923D01*
X119996602Y-35660864D01*
X119976315Y-35673869D01*
X119955377Y-35685908D01*
X119933818Y-35696950D01*
X119911670Y-35706963D01*
X119888964Y-35715916D01*
X119865732Y-35723777D01*
X119842005Y-35730514D01*
X119817815Y-35736098D01*
X119793192Y-35740495D01*
X119768169Y-35743674D01*
X119742777Y-35745605D01*
X119717047Y-35746256D01*
X119691317Y-35745605D01*
X119665925Y-35743674D01*
X119640902Y-35740495D01*
X119616280Y-35736098D01*
X119592089Y-35730514D01*
X119568363Y-35723777D01*
X119545131Y-35715916D01*
X119522425Y-35706963D01*
X119500277Y-35696950D01*
X119478718Y-35685908D01*
X119457779Y-35673869D01*
X119437493Y-35660864D01*
X119417889Y-35646923D01*
X119399001Y-35632080D01*
X119380859Y-35616365D01*
X119363494Y-35599809D01*
X119346938Y-35582444D01*
X119331223Y-35564302D01*
X119316380Y-35545414D01*
X119302439Y-35525810D01*
X119289434Y-35505524D01*
X119277395Y-35484585D01*
X119266353Y-35463026D01*
X119256340Y-35440878D01*
X119247387Y-35418172D01*
X119239526Y-35394940D01*
X119232789Y-35371214D01*
X119227205Y-35347023D01*
X119222808Y-35322401D01*
X119219629Y-35297378D01*
X119217698Y-35271986D01*
X119217047Y-35246256D01*
X119217698Y-35220526D01*
X119219629Y-35195133D01*
X119222808Y-35170110D01*
X119227205Y-35145488D01*
X119232789Y-35121297D01*
X119239526Y-35097570D01*
X119247387Y-35074338D01*
X119256340Y-35051633D01*
X119266353Y-35029484D01*
X119277395Y-35007925D01*
X119289434Y-34986987D01*
X119302439Y-34966700D01*
X119316380Y-34947097D01*
X119331223Y-34928209D01*
X119346938Y-34910066D01*
X119363494Y-34892702D01*
X119380859Y-34876146D01*
X119399001Y-34860431D01*
X119417889Y-34845588D01*
X119437493Y-34831648D01*
X119457779Y-34818642D01*
X119478718Y-34806603D01*
X119500277Y-34795561D01*
X119522425Y-34785548D01*
X119545131Y-34776595D01*
X119568363Y-34768735D01*
X119592089Y-34761997D01*
X119616280Y-34756414D01*
X119640902Y-34752017D01*
X119665925Y-34748837D01*
X119691317Y-34746906D01*
X119717047Y-34746256D01*
X119742777Y-34746906D01*
G37*
%TD.AperFunction*%
D11*
X108234366Y-20246255D02*
X108226166Y-27952063D01*
D10*
X82217050Y-16246256D02*
X86458565Y-20301062D01*
X83217050Y-16246256D02*
X87217049Y-20246255D01*
X86458565Y-25801063D02*
X83958566Y-28301063D01*
X81217050Y-16246256D02*
X85217050Y-20246255D01*
X85217050Y-20246255D02*
X85217050Y-26246256D01*
X86458565Y-20301062D02*
X86458565Y-25801063D01*
X83217050Y-28246256D02*
X78217050Y-28246256D01*
X85217050Y-26246256D02*
X83217050Y-28246256D01*
X78217050Y-28246256D02*
X75217051Y-31246256D01*
D12*
%TA.AperFunction,NonConductor*%
G36*
X84721241Y-27697054D02*
G01*
X84751711Y-27699371D01*
X84781739Y-27703187D01*
X84811286Y-27708463D01*
X84840314Y-27715163D01*
X84868787Y-27723248D01*
X84896665Y-27732681D01*
X84923912Y-27743425D01*
X84950490Y-27755440D01*
X84976361Y-27768690D01*
X85001487Y-27783138D01*
X85025831Y-27798744D01*
X85049355Y-27815472D01*
X85072021Y-27833285D01*
X85093791Y-27852143D01*
X85114629Y-27872010D01*
X85134496Y-27892847D01*
X85153354Y-27914618D01*
X85171166Y-27937284D01*
X85187895Y-27960808D01*
X85203501Y-27985152D01*
X85217948Y-28010278D01*
X85231199Y-28036149D01*
X85243214Y-28062727D01*
X85253957Y-28089974D01*
X85263391Y-28117852D01*
X85271476Y-28146325D01*
X85278176Y-28175353D01*
X85283452Y-28204900D01*
X85287268Y-28234927D01*
X85289585Y-28265398D01*
X85290365Y-28296274D01*
X85289585Y-28327150D01*
X85287268Y-28357620D01*
X85283452Y-28387648D01*
X85278176Y-28417194D01*
X85271476Y-28446223D01*
X85263391Y-28474695D01*
X85253957Y-28502573D01*
X85243214Y-28529820D01*
X85231199Y-28556398D01*
X85217948Y-28582269D01*
X85203501Y-28607395D01*
X85187895Y-28631739D01*
X85171166Y-28655263D01*
X85153354Y-28677929D01*
X85134496Y-28699700D01*
X85114629Y-28720538D01*
X85093791Y-28740404D01*
X85072021Y-28759263D01*
X85049355Y-28777075D01*
X85025831Y-28793803D01*
X85001487Y-28809410D01*
X84976361Y-28823857D01*
X84950490Y-28837107D01*
X84923912Y-28849123D01*
X84896665Y-28859866D01*
X84868787Y-28869299D01*
X84840314Y-28877384D01*
X84811286Y-28884084D01*
X84781739Y-28889361D01*
X84751711Y-28893176D01*
X84721241Y-28895493D01*
X84690365Y-28896274D01*
X84659489Y-28895493D01*
X84629019Y-28893176D01*
X84598991Y-28889361D01*
X84569444Y-28884084D01*
X84540416Y-28877384D01*
X84511944Y-28869299D01*
X84484065Y-28859866D01*
X84456818Y-28849123D01*
X84430241Y-28837107D01*
X84404370Y-28823857D01*
X84379244Y-28809410D01*
X84354900Y-28793803D01*
X84331376Y-28777075D01*
X84308710Y-28759263D01*
X84286939Y-28740404D01*
X84266101Y-28720538D01*
X84246235Y-28699700D01*
X84227376Y-28677929D01*
X84209564Y-28655263D01*
X84192836Y-28631739D01*
X84177230Y-28607395D01*
X84162782Y-28582269D01*
X84149532Y-28556398D01*
X84137517Y-28529820D01*
X84126773Y-28502573D01*
X84117340Y-28474695D01*
X84109255Y-28446223D01*
X84102555Y-28417194D01*
X84097279Y-28387648D01*
X84093463Y-28357620D01*
X84091146Y-28327150D01*
X84090366Y-28296274D01*
X84091146Y-28265398D01*
X84093463Y-28234927D01*
X84097279Y-28204900D01*
X84102555Y-28175353D01*
X84109255Y-28146325D01*
X84117340Y-28117852D01*
X84126773Y-28089974D01*
X84137517Y-28062727D01*
X84149532Y-28036149D01*
X84162782Y-28010278D01*
X84177230Y-27985152D01*
X84192836Y-27960808D01*
X84209564Y-27937284D01*
X84227376Y-27914618D01*
X84246235Y-27892847D01*
X84266101Y-27872010D01*
X84286939Y-27852143D01*
X84308710Y-27833285D01*
X84331376Y-27815472D01*
X84354900Y-27798744D01*
X84379244Y-27783138D01*
X84404370Y-27768690D01*
X84430241Y-27755440D01*
X84456818Y-27743425D01*
X84484065Y-27732681D01*
X84511944Y-27723248D01*
X84540416Y-27715163D01*
X84569444Y-27708463D01*
X84598991Y-27703187D01*
X84629019Y-27699371D01*
X84659489Y-27697054D01*
X84690365Y-27696273D01*
X84721241Y-27697054D01*
G37*
%TD.AperFunction*%
D11*
X120217047Y-54246252D02*
X116217047Y-58246252D01*
D16*
X79217050Y-68246256D02*
X74217051Y-68246256D01*
D10*
X87217049Y-20246255D02*
X87217049Y-25835863D01*
X109217047Y-79246252D02*
X107217047Y-81246252D01*
X85993366Y-78761063D02*
X85993366Y-86761063D01*
X107217047Y-81246252D02*
X107217047Y-87246252D01*
D22*
X107217047Y-87246252D02*
X108550383Y-88579589D01*
X109217047Y-89246252D01*
D10*
X85993366Y-86761063D02*
X83993366Y-88761063D01*
X83993366Y-76761063D02*
X85993366Y-78761063D01*
D23*
X112217047Y-93246252D02*
X116217047Y-93246252D01*
X109217047Y-90246252D02*
X112217047Y-93246252D01*
X81226450Y-74224656D02*
X84226450Y-77224652D01*
X109217047Y-77246252D02*
X109217047Y-90246252D01*
X112217047Y-74246256D02*
X109217047Y-77246252D01*
X116217047Y-74246256D02*
X112217047Y-74246256D01*
X80966965Y-93247463D02*
X76966966Y-93247463D01*
X84217050Y-90246252D02*
X81217050Y-93246252D01*
X84226450Y-77224652D02*
X84226450Y-90224652D01*
X77226451Y-74224656D02*
X81226450Y-74224656D01*
D24*
%TO.P,,1*%
%TO.N,N/C*%
X119138566Y-17283463D03*
%TD*%
%TO.P,,1*%
%TO.N,N/C*%
X74138566Y-92283463D03*
%TD*%
%TO.P,,1*%
%TO.N,N/C*%
X119138566Y-92283463D03*
%TD*%
%TO.P,,1*%
%TO.N,N/C*%
X74071366Y-17276063D03*
%TD*%
%TA.AperFunction,Conductor*%
%TO.N,Earth*%
G36*
X84995953Y-78330041D02*
G01*
X85563871Y-78897959D01*
X85591648Y-78952476D01*
X85592867Y-78967963D01*
X85592867Y-86554163D01*
X85573960Y-86612354D01*
X85563871Y-86624167D01*
X84995953Y-87192085D01*
X84941436Y-87219862D01*
X84881004Y-87210291D01*
X84837739Y-87167026D01*
X84826949Y-87122081D01*
X84826949Y-78400045D01*
X84845856Y-78341854D01*
X84895356Y-78305890D01*
X84956542Y-78305890D01*
X84995953Y-78330041D01*
G37*
%TD.AperFunction*%
%TA.AperFunction,Conductor*%
G36*
X108562493Y-80563940D02*
G01*
X108605758Y-80607205D01*
X108616548Y-80652150D01*
X108616548Y-87840354D01*
X108597641Y-87898545D01*
X108548141Y-87934509D01*
X108486955Y-87934509D01*
X108447544Y-87910358D01*
X107646542Y-87109356D01*
X107618765Y-87054839D01*
X107617546Y-87039352D01*
X107617546Y-81453152D01*
X107636453Y-81394961D01*
X107646542Y-81383148D01*
X108447544Y-80582146D01*
X108502061Y-80554369D01*
X108562493Y-80563940D01*
G37*
%TD.AperFunction*%
%TA.AperFunction,Conductor*%
G36*
X106162493Y-67105365D02*
G01*
X106205758Y-67148630D01*
X106216548Y-67193575D01*
X106216548Y-69318764D01*
X106197641Y-69376955D01*
X106170982Y-69402106D01*
X106158841Y-69409889D01*
X106150662Y-69415414D01*
X106119305Y-69437712D01*
X106113403Y-69442126D01*
X106111420Y-69443609D01*
X106109023Y-69445493D01*
X106081168Y-69467382D01*
X106073649Y-69473587D01*
X106044602Y-69498748D01*
X106037339Y-69505348D01*
X106009563Y-69531831D01*
X106002626Y-69538768D01*
X105976133Y-69566555D01*
X105969541Y-69573809D01*
X105944399Y-69602833D01*
X105938151Y-69610405D01*
X105914412Y-69640614D01*
X105908483Y-69648542D01*
X105897226Y-69664373D01*
X105848095Y-69700839D01*
X105786912Y-69701461D01*
X105737049Y-69666002D01*
X105717551Y-69608007D01*
X105717546Y-69607000D01*
X105717546Y-67494577D01*
X105736453Y-67436386D01*
X105746542Y-67424573D01*
X106047544Y-67123571D01*
X106102061Y-67095794D01*
X106162493Y-67105365D01*
G37*
%TD.AperFunction*%
%TA.AperFunction,Conductor*%
G36*
X115662493Y-58105361D02*
G01*
X115705758Y-58148626D01*
X115716548Y-58193571D01*
X115716548Y-61997931D01*
X115697641Y-62056122D01*
X115687552Y-62067934D01*
X114038731Y-63716760D01*
X113984214Y-63744538D01*
X113968727Y-63745757D01*
X108664362Y-63745757D01*
X108606171Y-63726850D01*
X108570207Y-63677350D01*
X108570207Y-63616164D01*
X108594358Y-63576754D01*
X108895363Y-63275748D01*
X108949880Y-63247970D01*
X108965367Y-63246751D01*
X113282937Y-63246751D01*
X113282939Y-63246751D01*
X113410233Y-63212643D01*
X113410235Y-63212641D01*
X113410237Y-63212641D01*
X113524356Y-63146754D01*
X113524356Y-63146753D01*
X113524361Y-63146751D01*
X115117546Y-61553566D01*
X115183437Y-61439438D01*
X115183438Y-61439437D01*
X115217546Y-61312144D01*
X115217546Y-58494573D01*
X115236453Y-58436382D01*
X115246536Y-58424575D01*
X115547546Y-58123565D01*
X115602061Y-58095790D01*
X115662493Y-58105361D01*
G37*
%TD.AperFunction*%
%TA.AperFunction,Conductor*%
G36*
X81712496Y-64714632D02*
G01*
X81755761Y-64757897D01*
X81766551Y-64802842D01*
X81766551Y-65018645D01*
X81747644Y-65076836D01*
X81737555Y-65088649D01*
X79059443Y-67766761D01*
X79004926Y-67794538D01*
X78989439Y-67795757D01*
X74419710Y-67795757D01*
X74408341Y-67792063D01*
X74396422Y-67792979D01*
X74379934Y-67782833D01*
X74361519Y-67776850D01*
X74354491Y-67767177D01*
X74344311Y-67760913D01*
X74336954Y-67743039D01*
X74325555Y-67727350D01*
X74321001Y-67704343D01*
X74319893Y-67689774D01*
X74319845Y-67689302D01*
X74319754Y-67688116D01*
X74326681Y-67659490D01*
X74332908Y-67630718D01*
X74333983Y-67629321D01*
X74334147Y-67628647D01*
X74335180Y-67627767D01*
X74348460Y-67610526D01*
X75337208Y-66621781D01*
X75391724Y-66594004D01*
X75407211Y-66592785D01*
X79696226Y-66592785D01*
X79696226Y-66592784D01*
X79784359Y-66569169D01*
X79863378Y-66523548D01*
X79927896Y-66459030D01*
X79973517Y-66380011D01*
X79975120Y-66374026D01*
X80000742Y-66329641D01*
X80665776Y-65664608D01*
X80665779Y-65664607D01*
X81597549Y-64732836D01*
X81652064Y-64705061D01*
X81712496Y-64714632D01*
G37*
%TD.AperFunction*%
%TA.AperFunction,Conductor*%
G36*
X85784956Y-20211170D02*
G01*
X86027477Y-20443015D01*
X86056474Y-20496892D01*
X86058066Y-20514575D01*
X86058066Y-25594163D01*
X86039159Y-25652354D01*
X86029070Y-25664167D01*
X85786553Y-25906684D01*
X85732036Y-25934461D01*
X85671604Y-25924890D01*
X85628339Y-25881625D01*
X85617549Y-25836680D01*
X85617549Y-20282733D01*
X85636456Y-20224542D01*
X85685956Y-20188578D01*
X85747142Y-20188578D01*
X85784956Y-20211170D01*
G37*
%TD.AperFunction*%
%TA.AperFunction,Conductor*%
G36*
X123597257Y-12802870D02*
G01*
X123633221Y-12852370D01*
X123638066Y-12882963D01*
X123638066Y-96683963D01*
X123619159Y-96742154D01*
X123569659Y-96778118D01*
X123539066Y-96782963D01*
X69738066Y-96782963D01*
X69679875Y-96764056D01*
X69643911Y-96714556D01*
X69639066Y-96683963D01*
X69639066Y-92112149D01*
X71088066Y-92112149D01*
X71088066Y-92454776D01*
X71126426Y-92795244D01*
X71202669Y-93129283D01*
X71315829Y-93452676D01*
X71315830Y-93452678D01*
X71464482Y-93761358D01*
X71464486Y-93761365D01*
X71464490Y-93761373D01*
X71646777Y-94051481D01*
X71860400Y-94319356D01*
X72102673Y-94561629D01*
X72370548Y-94775252D01*
X72660656Y-94957539D01*
X72660667Y-94957544D01*
X72660670Y-94957546D01*
X72763226Y-95006934D01*
X72969351Y-95106199D01*
X73120319Y-95159024D01*
X73292745Y-95219359D01*
X73292748Y-95219359D01*
X73292749Y-95219360D01*
X73626783Y-95295602D01*
X73967254Y-95333963D01*
X73967255Y-95333963D01*
X74309877Y-95333963D01*
X74309878Y-95333963D01*
X74650349Y-95295602D01*
X74984383Y-95219360D01*
X75307781Y-95106199D01*
X75616476Y-94957539D01*
X75906584Y-94775252D01*
X76174459Y-94561629D01*
X76416732Y-94319356D01*
X76630355Y-94051481D01*
X76738047Y-93880087D01*
X76785014Y-93840877D01*
X76846061Y-93836761D01*
X76847495Y-93837133D01*
X76887909Y-93847962D01*
X76887910Y-93847962D01*
X81046023Y-93847962D01*
X81054803Y-93845608D01*
X81068640Y-93841900D01*
X81119889Y-93841900D01*
X81137993Y-93846751D01*
X81137995Y-93846751D01*
X81296105Y-93846751D01*
X81296107Y-93846751D01*
X81448834Y-93805828D01*
X81585765Y-93726771D01*
X84697569Y-90614967D01*
X84776626Y-90478036D01*
X84776627Y-90478030D01*
X84779109Y-90472040D01*
X84779442Y-90472178D01*
X84785804Y-90456819D01*
X84786026Y-90456436D01*
X84826949Y-90303709D01*
X84826949Y-88534878D01*
X84845856Y-88476687D01*
X84855939Y-88464880D01*
X86313845Y-87006975D01*
X86366572Y-86915650D01*
X86393865Y-86813790D01*
X86393865Y-86708336D01*
X86393865Y-81336929D01*
X92137977Y-81336929D01*
X92137977Y-81729996D01*
X92176504Y-82121175D01*
X92253189Y-82506702D01*
X92367288Y-82882837D01*
X92517711Y-83245989D01*
X92517724Y-83246016D01*
X92703005Y-83592654D01*
X92821560Y-83770083D01*
X92921387Y-83919485D01*
X93170750Y-84223335D01*
X93448694Y-84501279D01*
X93752544Y-84750642D01*
X93915958Y-84859831D01*
X94079374Y-84969023D01*
X94426012Y-85154304D01*
X94426031Y-85154314D01*
X94789183Y-85304737D01*
X94789185Y-85304737D01*
X94789191Y-85304740D01*
X95165326Y-85418839D01*
X95165328Y-85418839D01*
X95165330Y-85418840D01*
X95550850Y-85495524D01*
X95942030Y-85534052D01*
X95942033Y-85534052D01*
X96335099Y-85534052D01*
X96335102Y-85534052D01*
X96726282Y-85495524D01*
X97111802Y-85418840D01*
X97205838Y-85390314D01*
X97487940Y-85304740D01*
X97487942Y-85304738D01*
X97487949Y-85304737D01*
X97851101Y-85154314D01*
X98020489Y-85063774D01*
X98197757Y-84969023D01*
X98197760Y-84969021D01*
X98524588Y-84750642D01*
X98828438Y-84501279D01*
X99106382Y-84223335D01*
X99355745Y-83919485D01*
X99574124Y-83592657D01*
X99606424Y-83532229D01*
X99759407Y-83246016D01*
X99759417Y-83245998D01*
X99909840Y-82882846D01*
X100023943Y-82506699D01*
X100100627Y-82121179D01*
X100139155Y-81729999D01*
X100139155Y-81336927D01*
X100125031Y-81193526D01*
X100125031Y-81193525D01*
X106816548Y-81193525D01*
X106816548Y-87193525D01*
X106816548Y-87298979D01*
X106833190Y-87361089D01*
X106843842Y-87400843D01*
X106896564Y-87492159D01*
X106896565Y-87492160D01*
X106896566Y-87492161D01*
X106896568Y-87492164D01*
X107898274Y-88493871D01*
X108229903Y-88825500D01*
X108229904Y-88825501D01*
X108229903Y-88825501D01*
X108587551Y-89183147D01*
X108615329Y-89237664D01*
X108616548Y-89253151D01*
X108616548Y-90167194D01*
X108616548Y-90167195D01*
X108616548Y-90325309D01*
X108657471Y-90478036D01*
X108736528Y-90614967D01*
X111848332Y-93726771D01*
X111985263Y-93805828D01*
X112137990Y-93846751D01*
X112137992Y-93846751D01*
X116296103Y-93846751D01*
X116296104Y-93846751D01*
X116415566Y-93814741D01*
X116476666Y-93817942D01*
X116524216Y-93856447D01*
X116524996Y-93857668D01*
X116646777Y-94051481D01*
X116860400Y-94319356D01*
X117102673Y-94561629D01*
X117370548Y-94775252D01*
X117660656Y-94957539D01*
X117660667Y-94957544D01*
X117660670Y-94957546D01*
X117763226Y-95006934D01*
X117969351Y-95106199D01*
X118120319Y-95159024D01*
X118292745Y-95219359D01*
X118292748Y-95219359D01*
X118292749Y-95219360D01*
X118626783Y-95295602D01*
X118967254Y-95333963D01*
X118967255Y-95333963D01*
X119309877Y-95333963D01*
X119309878Y-95333963D01*
X119650349Y-95295602D01*
X119984383Y-95219360D01*
X120307781Y-95106199D01*
X120616476Y-94957539D01*
X120906584Y-94775252D01*
X121174459Y-94561629D01*
X121416732Y-94319356D01*
X121630355Y-94051481D01*
X121812642Y-93761373D01*
X121961302Y-93452678D01*
X122074463Y-93129280D01*
X122150705Y-92795246D01*
X122189066Y-92454775D01*
X122189066Y-92112151D01*
X122150705Y-91771680D01*
X122074463Y-91437646D01*
X121961302Y-91114248D01*
X121812642Y-90805553D01*
X121630355Y-90515445D01*
X121416732Y-90247570D01*
X121174459Y-90005297D01*
X120906584Y-89791674D01*
X120616476Y-89609387D01*
X120616468Y-89609383D01*
X120616461Y-89609379D01*
X120307781Y-89460727D01*
X120307779Y-89460726D01*
X119984386Y-89347566D01*
X119650347Y-89271323D01*
X119309879Y-89232963D01*
X119309878Y-89232963D01*
X118967254Y-89232963D01*
X118967252Y-89232963D01*
X118626784Y-89271323D01*
X118292745Y-89347566D01*
X117969352Y-89460726D01*
X117969350Y-89460727D01*
X117660670Y-89609379D01*
X117660658Y-89609386D01*
X117370547Y-89791674D01*
X117102674Y-90005296D01*
X116860399Y-90247571D01*
X116646777Y-90515444D01*
X116464489Y-90805555D01*
X116464482Y-90805567D01*
X116315830Y-91114247D01*
X116315829Y-91114249D01*
X116202669Y-91437642D01*
X116126426Y-91771681D01*
X116088066Y-92112149D01*
X116088066Y-92454791D01*
X116097180Y-92535668D01*
X116084908Y-92595610D01*
X116039746Y-92636890D01*
X115998803Y-92645753D01*
X112506790Y-92645753D01*
X112448599Y-92626846D01*
X112436786Y-92616757D01*
X109846542Y-90026513D01*
X109818765Y-89971996D01*
X109817546Y-89956509D01*
X109817546Y-77535995D01*
X109836453Y-77477804D01*
X109846542Y-77465991D01*
X110164406Y-77148128D01*
X112436786Y-74875751D01*
X112491303Y-74847974D01*
X112506790Y-74846755D01*
X116296102Y-74846755D01*
X116296104Y-74846755D01*
X116448831Y-74805832D01*
X116585762Y-74726775D01*
X116697566Y-74614971D01*
X116776623Y-74478040D01*
X116817546Y-74325313D01*
X116817546Y-74167199D01*
X116776623Y-74014472D01*
X116697566Y-73877541D01*
X116585762Y-73765737D01*
X116448831Y-73686680D01*
X116296104Y-73645757D01*
X112137990Y-73645757D01*
X112061626Y-73666218D01*
X111985261Y-73686680D01*
X111885743Y-73744138D01*
X111885742Y-73744137D01*
X111848333Y-73765736D01*
X108848334Y-76765731D01*
X108848332Y-76765733D01*
X108848331Y-76765732D01*
X108736527Y-76877537D01*
X108675132Y-76983877D01*
X108675130Y-76983880D01*
X108669942Y-76992868D01*
X108657471Y-77014468D01*
X108622336Y-77145595D01*
X108621658Y-77148123D01*
X108621657Y-77148128D01*
X108616548Y-77167195D01*
X108616548Y-79239352D01*
X108597641Y-79297543D01*
X108587552Y-79309356D01*
X106971135Y-80925773D01*
X106971134Y-80925772D01*
X106896568Y-81000339D01*
X106896564Y-81000344D01*
X106843842Y-81091660D01*
X106843841Y-81091665D01*
X106816548Y-81193525D01*
X100125031Y-81193525D01*
X100100627Y-80945750D01*
X100100627Y-80945747D01*
X100023943Y-80560227D01*
X100022166Y-80554369D01*
X99909843Y-80184088D01*
X99759420Y-79820936D01*
X99759417Y-79820928D01*
X99759407Y-79820909D01*
X99574126Y-79474271D01*
X99417158Y-79239352D01*
X99355745Y-79147441D01*
X99106382Y-78843591D01*
X98828438Y-78565647D01*
X98524588Y-78316284D01*
X98442881Y-78261689D01*
X98197757Y-78097902D01*
X97851119Y-77912621D01*
X97851107Y-77912615D01*
X97851101Y-77912612D01*
X97851096Y-77912609D01*
X97851092Y-77912608D01*
X97487940Y-77762185D01*
X97111805Y-77648086D01*
X96820665Y-77590175D01*
X96726282Y-77571402D01*
X96726280Y-77571401D01*
X96440319Y-77543237D01*
X96335102Y-77532874D01*
X95942030Y-77532874D01*
X95826449Y-77544257D01*
X95550853Y-77571401D01*
X95165326Y-77648086D01*
X94789191Y-77762185D01*
X94426039Y-77912608D01*
X94426012Y-77912621D01*
X94079374Y-78097902D01*
X93752542Y-78316285D01*
X93448699Y-78565642D01*
X93170745Y-78843596D01*
X92921388Y-79147439D01*
X92703005Y-79474271D01*
X92517724Y-79820909D01*
X92517711Y-79820936D01*
X92367288Y-80184088D01*
X92253189Y-80560223D01*
X92176504Y-80945750D01*
X92137977Y-81336929D01*
X86393865Y-81336929D01*
X86393865Y-78708336D01*
X86366572Y-78606476D01*
X86366570Y-78606473D01*
X86366570Y-78606471D01*
X86313848Y-78515155D01*
X86313844Y-78515150D01*
X86239278Y-78440583D01*
X86239278Y-78440584D01*
X84787678Y-76988984D01*
X84771946Y-76968480D01*
X84706969Y-76855937D01*
X84595165Y-76744132D01*
X84595165Y-76744133D01*
X84595164Y-76744132D01*
X81595165Y-73744137D01*
X81458234Y-73665080D01*
X81305507Y-73624157D01*
X77147394Y-73624157D01*
X76994667Y-73665080D01*
X76857736Y-73744137D01*
X76745932Y-73855941D01*
X76666875Y-73992872D01*
X76625952Y-74145599D01*
X76625952Y-74303713D01*
X76666875Y-74456440D01*
X76745932Y-74593371D01*
X76857736Y-74705175D01*
X76994667Y-74784232D01*
X77147394Y-74825155D01*
X80936708Y-74825155D01*
X80994899Y-74844062D01*
X81006712Y-74854151D01*
X83167031Y-77014468D01*
X83596955Y-77444391D01*
X83624732Y-77498908D01*
X83625951Y-77514395D01*
X83625951Y-88572804D01*
X83620568Y-88599868D01*
X83621840Y-88600209D01*
X83620161Y-88606473D01*
X83620160Y-88606476D01*
X83592867Y-88708336D01*
X83592867Y-88813790D01*
X83620160Y-88915650D01*
X83620160Y-88915651D01*
X83621840Y-88921918D01*
X83620566Y-88922259D01*
X83625951Y-88949322D01*
X83625951Y-89947109D01*
X83607044Y-90005300D01*
X83596955Y-90017113D01*
X80996100Y-92617968D01*
X80941583Y-92645745D01*
X80926096Y-92646964D01*
X77278193Y-92646964D01*
X77220002Y-92628057D01*
X77184038Y-92578557D01*
X77179815Y-92536880D01*
X77179952Y-92535668D01*
X77189066Y-92454775D01*
X77189066Y-92112151D01*
X77150705Y-91771680D01*
X77074463Y-91437646D01*
X76961302Y-91114248D01*
X76812642Y-90805553D01*
X76630355Y-90515445D01*
X76416732Y-90247570D01*
X76174459Y-90005297D01*
X75906584Y-89791674D01*
X75616476Y-89609387D01*
X75616468Y-89609383D01*
X75616461Y-89609379D01*
X75307781Y-89460727D01*
X75307779Y-89460726D01*
X74984386Y-89347566D01*
X74650347Y-89271323D01*
X74309879Y-89232963D01*
X74309878Y-89232963D01*
X73967254Y-89232963D01*
X73967252Y-89232963D01*
X73626784Y-89271323D01*
X73292745Y-89347566D01*
X72969352Y-89460726D01*
X72969350Y-89460727D01*
X72660670Y-89609379D01*
X72660658Y-89609386D01*
X72370547Y-89791674D01*
X72102674Y-90005296D01*
X71860399Y-90247571D01*
X71646777Y-90515444D01*
X71464489Y-90805555D01*
X71464482Y-90805567D01*
X71315830Y-91114247D01*
X71315829Y-91114249D01*
X71202669Y-91437642D01*
X71126426Y-91771681D01*
X71088066Y-92112149D01*
X69639066Y-92112149D01*
X69639066Y-72241046D01*
X104211614Y-72241046D01*
X104211614Y-72251465D01*
X104212653Y-72292584D01*
X104213181Y-72303024D01*
X104216268Y-72343627D01*
X104217318Y-72353959D01*
X104222405Y-72393987D01*
X104223968Y-72404229D01*
X104231002Y-72443616D01*
X104233059Y-72453674D01*
X104242003Y-72492422D01*
X104244545Y-72502308D01*
X104255333Y-72540299D01*
X104258353Y-72550013D01*
X104270934Y-72587191D01*
X104274411Y-72596687D01*
X104288750Y-72633055D01*
X104292662Y-72642308D01*
X104308677Y-72677731D01*
X104313040Y-72686786D01*
X104330679Y-72721225D01*
X104330697Y-72721258D01*
X104330699Y-72721262D01*
X104335453Y-72730015D01*
X104335464Y-72730034D01*
X104354708Y-72763505D01*
X104359867Y-72771995D01*
X104380676Y-72804453D01*
X104386203Y-72812634D01*
X104386213Y-72812648D01*
X104386215Y-72812651D01*
X104408489Y-72843975D01*
X104408507Y-72843999D01*
X104414400Y-72851880D01*
X104438149Y-72882102D01*
X104440650Y-72885132D01*
X104444399Y-72889676D01*
X104444402Y-72889679D01*
X104469547Y-72918707D01*
X104476141Y-72925963D01*
X104502630Y-72953746D01*
X104509557Y-72960673D01*
X104537340Y-72987162D01*
X104544596Y-72993756D01*
X104573624Y-73018901D01*
X104581201Y-73025154D01*
X104611423Y-73048903D01*
X104619304Y-73054796D01*
X104619327Y-73054813D01*
X104643232Y-73071811D01*
X104650669Y-73077100D01*
X104658850Y-73082627D01*
X104687515Y-73101004D01*
X104691300Y-73103431D01*
X104699797Y-73108594D01*
X104719021Y-73119646D01*
X104733288Y-73127850D01*
X104742041Y-73132604D01*
X104742058Y-73132613D01*
X104742077Y-73132623D01*
X104776516Y-73150262D01*
X104776535Y-73150271D01*
X104785558Y-73154619D01*
X104785566Y-73154623D01*
X104785571Y-73154625D01*
X104820994Y-73170640D01*
X104830247Y-73174552D01*
X104830261Y-73174557D01*
X104830274Y-73174563D01*
X104866603Y-73188887D01*
X104876112Y-73192369D01*
X104913283Y-73204947D01*
X104913289Y-73204949D01*
X104923003Y-73207969D01*
X104960994Y-73218757D01*
X104964948Y-73219773D01*
X104970901Y-73221305D01*
X105009602Y-73230237D01*
X105009628Y-73230243D01*
X105017258Y-73231803D01*
X105019695Y-73232302D01*
X105045171Y-73236851D01*
X105059073Y-73239334D01*
X105059081Y-73239335D01*
X105059091Y-73239337D01*
X105069308Y-73240897D01*
X105109344Y-73245985D01*
X105119672Y-73247034D01*
X105160299Y-73250123D01*
X105170684Y-73250648D01*
X105170712Y-73250648D01*
X105170718Y-73250649D01*
X105211837Y-73251689D01*
X105211852Y-73251689D01*
X105222257Y-73251689D01*
X105263373Y-73250649D01*
X105263375Y-73250648D01*
X105263410Y-73250648D01*
X105273794Y-73250123D01*
X105314422Y-73247034D01*
X105324750Y-73245985D01*
X105364787Y-73240897D01*
X105375005Y-73239337D01*
X105414401Y-73232302D01*
X105424491Y-73230238D01*
X105463195Y-73221305D01*
X105473113Y-73218754D01*
X105511077Y-73207974D01*
X105520813Y-73204947D01*
X105557984Y-73192369D01*
X105567491Y-73188888D01*
X105603821Y-73174564D01*
X105613102Y-73170640D01*
X105648539Y-73154619D01*
X105657562Y-73150271D01*
X105692056Y-73132604D01*
X105700809Y-73127850D01*
X105734311Y-73108587D01*
X105742787Y-73103437D01*
X105775246Y-73082628D01*
X105783429Y-73077100D01*
X105814794Y-73054796D01*
X105822677Y-73048901D01*
X105852898Y-73025152D01*
X105860473Y-73018901D01*
X105889501Y-72993756D01*
X105896754Y-72987164D01*
X105924538Y-72960675D01*
X105931468Y-72953746D01*
X105957957Y-72925963D01*
X105964554Y-72918704D01*
X105989698Y-72889676D01*
X105995946Y-72882105D01*
X106019696Y-72851883D01*
X106025591Y-72843999D01*
X106047895Y-72812634D01*
X106053422Y-72804453D01*
X106074231Y-72771995D01*
X106079382Y-72763517D01*
X106098645Y-72730015D01*
X106103399Y-72721262D01*
X106121066Y-72686768D01*
X106125414Y-72677745D01*
X106141435Y-72642308D01*
X106145358Y-72633029D01*
X106159682Y-72596700D01*
X106163164Y-72587191D01*
X106175742Y-72550020D01*
X106178768Y-72540286D01*
X106189548Y-72502323D01*
X106192100Y-72492402D01*
X106201033Y-72453697D01*
X106203097Y-72443608D01*
X106210132Y-72404212D01*
X106211692Y-72393995D01*
X106216780Y-72353959D01*
X106217829Y-72343631D01*
X106220918Y-72303004D01*
X106221443Y-72292619D01*
X106222484Y-72251451D01*
X106222484Y-72241061D01*
X106221443Y-72199893D01*
X106220918Y-72189509D01*
X106217829Y-72148881D01*
X106216780Y-72138553D01*
X106211692Y-72098516D01*
X106210132Y-72088298D01*
X106203097Y-72048902D01*
X106201033Y-72038812D01*
X106192100Y-72000108D01*
X106189549Y-71990190D01*
X106178769Y-71952226D01*
X106175742Y-71942490D01*
X106163164Y-71905319D01*
X106159683Y-71895812D01*
X106145359Y-71859482D01*
X106141435Y-71850201D01*
X106125414Y-71814764D01*
X106121066Y-71805741D01*
X106121057Y-71805722D01*
X106103418Y-71771283D01*
X106103408Y-71771264D01*
X106103399Y-71771247D01*
X106098645Y-71762494D01*
X106079382Y-71728992D01*
X106079381Y-71728990D01*
X106079367Y-71728966D01*
X106074245Y-71720536D01*
X106072204Y-71717353D01*
X106053423Y-71688057D01*
X106047895Y-71679874D01*
X106047872Y-71679841D01*
X106025599Y-71648519D01*
X106019707Y-71640639D01*
X105995920Y-71610371D01*
X105989720Y-71602859D01*
X105989708Y-71602845D01*
X105989698Y-71602833D01*
X105964554Y-71573805D01*
X105962138Y-71571147D01*
X105957946Y-71566534D01*
X105931493Y-71538788D01*
X105924514Y-71531809D01*
X105896768Y-71505356D01*
X105889501Y-71498752D01*
X105889494Y-71498746D01*
X105860470Y-71473605D01*
X105860446Y-71473585D01*
X105860443Y-71473582D01*
X105852931Y-71467382D01*
X105822663Y-71443595D01*
X105814783Y-71437703D01*
X105783454Y-71415425D01*
X105783429Y-71415408D01*
X105775246Y-71409880D01*
X105772235Y-71407949D01*
X105763110Y-71402099D01*
X105724329Y-71354774D01*
X105717546Y-71318759D01*
X105717546Y-70885509D01*
X105736453Y-70827318D01*
X105785953Y-70791354D01*
X105847139Y-70791354D01*
X105896639Y-70827318D01*
X105897228Y-70828138D01*
X105908495Y-70843984D01*
X105911453Y-70847939D01*
X105914400Y-70851880D01*
X105938149Y-70882102D01*
X105940650Y-70885132D01*
X105944399Y-70889676D01*
X105963086Y-70911248D01*
X105969547Y-70918707D01*
X105976141Y-70925963D01*
X106002630Y-70953746D01*
X106009557Y-70960673D01*
X106037340Y-70987162D01*
X106040772Y-70990281D01*
X106044602Y-70993761D01*
X106067894Y-71013938D01*
X106073624Y-71018901D01*
X106081201Y-71025154D01*
X106111423Y-71048903D01*
X106115148Y-71051688D01*
X106119327Y-71054813D01*
X106143232Y-71071811D01*
X106150669Y-71077100D01*
X106158850Y-71082627D01*
X106187515Y-71101004D01*
X106191300Y-71103431D01*
X106199797Y-71108594D01*
X106219021Y-71119646D01*
X106233288Y-71127850D01*
X106242041Y-71132604D01*
X106242058Y-71132613D01*
X106242077Y-71132623D01*
X106276516Y-71150262D01*
X106276535Y-71150271D01*
X106285558Y-71154619D01*
X106285566Y-71154623D01*
X106285571Y-71154625D01*
X106320994Y-71170640D01*
X106330247Y-71174552D01*
X106330261Y-71174557D01*
X106330274Y-71174563D01*
X106366603Y-71188887D01*
X106376112Y-71192369D01*
X106413283Y-71204947D01*
X106413289Y-71204949D01*
X106423003Y-71207969D01*
X106460994Y-71218757D01*
X106464948Y-71219773D01*
X106470901Y-71221305D01*
X106509602Y-71230237D01*
X106509628Y-71230243D01*
X106517258Y-71231803D01*
X106519695Y-71232302D01*
X106545171Y-71236851D01*
X106559073Y-71239334D01*
X106559081Y-71239335D01*
X106559091Y-71239337D01*
X106569308Y-71240897D01*
X106609344Y-71245985D01*
X106619672Y-71247034D01*
X106660299Y-71250123D01*
X106670684Y-71250648D01*
X106670712Y-71250648D01*
X106670718Y-71250649D01*
X106711837Y-71251689D01*
X106711852Y-71251689D01*
X106722257Y-71251689D01*
X106763373Y-71250649D01*
X106763375Y-71250648D01*
X106763410Y-71250648D01*
X106773794Y-71250123D01*
X106814422Y-71247034D01*
X106824750Y-71245985D01*
X106864787Y-71240897D01*
X106875005Y-71239337D01*
X106914401Y-71232302D01*
X106924491Y-71230238D01*
X106963195Y-71221305D01*
X106973113Y-71218754D01*
X107011077Y-71207974D01*
X107020813Y-71204947D01*
X107057984Y-71192369D01*
X107067491Y-71188888D01*
X107103821Y-71174564D01*
X107113102Y-71170640D01*
X107148539Y-71154619D01*
X107157562Y-71150271D01*
X107192056Y-71132604D01*
X107200809Y-71127850D01*
X107234311Y-71108587D01*
X107242787Y-71103437D01*
X107275246Y-71082628D01*
X107283429Y-71077100D01*
X107314794Y-71054796D01*
X107322677Y-71048901D01*
X107352898Y-71025152D01*
X107360473Y-71018901D01*
X107389501Y-70993756D01*
X107396754Y-70987164D01*
X107424538Y-70960675D01*
X107431468Y-70953746D01*
X107457957Y-70925963D01*
X107464554Y-70918704D01*
X107489698Y-70889676D01*
X107495946Y-70882105D01*
X107519696Y-70851883D01*
X107525591Y-70843999D01*
X107547895Y-70812634D01*
X107553422Y-70804453D01*
X107574231Y-70771995D01*
X107579382Y-70763517D01*
X107598645Y-70730015D01*
X107603399Y-70721262D01*
X107613866Y-70700826D01*
X107621057Y-70686786D01*
X107621066Y-70686768D01*
X107625414Y-70677745D01*
X107641435Y-70642308D01*
X107645358Y-70633029D01*
X107659682Y-70596700D01*
X107663164Y-70587191D01*
X107675742Y-70550020D01*
X107678768Y-70540286D01*
X107689548Y-70502323D01*
X107692100Y-70492402D01*
X107701033Y-70453697D01*
X107701312Y-70452336D01*
X107703095Y-70443616D01*
X107703097Y-70443608D01*
X107710132Y-70404212D01*
X107711692Y-70393995D01*
X107716780Y-70353959D01*
X107717829Y-70343631D01*
X107720918Y-70303004D01*
X107721443Y-70292619D01*
X107721703Y-70282328D01*
X107722484Y-70251465D01*
X107722484Y-70241046D01*
X107721444Y-70199929D01*
X107721443Y-70199925D01*
X107721443Y-70199893D01*
X107720918Y-70189509D01*
X107717829Y-70148881D01*
X107716780Y-70138553D01*
X107711692Y-70098516D01*
X107710132Y-70088298D01*
X107703097Y-70048902D01*
X107701033Y-70038812D01*
X107692100Y-70000108D01*
X107689548Y-69990188D01*
X107678768Y-69952225D01*
X107675742Y-69942493D01*
X107663164Y-69905321D01*
X107659682Y-69895810D01*
X107645358Y-69859481D01*
X107641435Y-69850202D01*
X107629689Y-69824222D01*
X107625420Y-69814778D01*
X107621057Y-69805723D01*
X107603418Y-69771284D01*
X107603408Y-69771265D01*
X107603399Y-69771248D01*
X107598645Y-69762495D01*
X107584354Y-69737640D01*
X107579389Y-69729004D01*
X107574226Y-69720507D01*
X107562015Y-69701461D01*
X107553422Y-69688057D01*
X107547895Y-69679876D01*
X107543184Y-69673251D01*
X107525598Y-69648520D01*
X107523974Y-69646349D01*
X107519696Y-69640627D01*
X107495946Y-69610405D01*
X107495937Y-69610394D01*
X107495922Y-69610375D01*
X107489717Y-69602856D01*
X107485475Y-69597959D01*
X107464554Y-69573806D01*
X107457957Y-69566547D01*
X107431468Y-69538764D01*
X107431453Y-69538748D01*
X107424535Y-69531832D01*
X107396768Y-69505359D01*
X107389501Y-69498754D01*
X107389494Y-69498748D01*
X107360470Y-69473607D01*
X107360446Y-69473587D01*
X107360443Y-69473584D01*
X107352931Y-69467384D01*
X107349775Y-69464904D01*
X107322681Y-69443611D01*
X107322677Y-69443608D01*
X107322663Y-69443597D01*
X107314810Y-69437726D01*
X107314811Y-69437726D01*
X107314794Y-69437714D01*
X107283429Y-69415410D01*
X107275242Y-69409879D01*
X107275238Y-69409876D01*
X107275227Y-69409869D01*
X107263115Y-69402104D01*
X107224331Y-69354781D01*
X107217546Y-69318761D01*
X107217546Y-65994577D01*
X107236453Y-65936386D01*
X107246542Y-65924573D01*
X108395364Y-64775751D01*
X108449881Y-64747974D01*
X108465368Y-64746755D01*
X114282937Y-64746755D01*
X114282939Y-64746755D01*
X114410232Y-64712647D01*
X114524361Y-64646755D01*
X114617546Y-64553570D01*
X114617546Y-64553569D01*
X116524359Y-62646752D01*
X116524361Y-62646751D01*
X116617546Y-62553566D01*
X116683438Y-62439437D01*
X116717546Y-62312144D01*
X116717546Y-58494573D01*
X116736453Y-58436382D01*
X116746536Y-58424575D01*
X120617546Y-54553566D01*
X120683437Y-54439438D01*
X120717546Y-54312144D01*
X120717546Y-54180360D01*
X120683437Y-54053066D01*
X120617546Y-53938939D01*
X120524360Y-53845753D01*
X120524357Y-53845751D01*
X120410236Y-53779863D01*
X120410232Y-53779861D01*
X120282941Y-53745753D01*
X120282939Y-53745753D01*
X120151155Y-53745753D01*
X120151152Y-53745753D01*
X120023864Y-53779860D01*
X120023863Y-53779861D01*
X120023861Y-53779861D01*
X120023861Y-53779862D01*
X119909733Y-53845753D01*
X119386547Y-54368938D01*
X119332033Y-54396714D01*
X119271601Y-54387143D01*
X119228336Y-54343878D01*
X119217546Y-54298933D01*
X119217546Y-54180359D01*
X119217545Y-54180357D01*
X119209854Y-54151656D01*
X119183437Y-54053066D01*
X119117546Y-53938939D01*
X119024360Y-53845753D01*
X119024357Y-53845751D01*
X118910236Y-53779863D01*
X118910232Y-53779861D01*
X118782941Y-53745753D01*
X118782939Y-53745753D01*
X118651155Y-53745753D01*
X118651152Y-53745753D01*
X118523864Y-53779860D01*
X118523863Y-53779861D01*
X118523861Y-53779861D01*
X118523861Y-53779862D01*
X118409736Y-53845751D01*
X118409733Y-53845753D01*
X114316547Y-57938939D01*
X114250655Y-58053066D01*
X114250656Y-58053067D01*
X114239209Y-58095790D01*
X114216548Y-58180361D01*
X114216548Y-60997930D01*
X114197641Y-61056121D01*
X114187552Y-61067934D01*
X113038729Y-62216757D01*
X112984212Y-62244534D01*
X112968725Y-62245753D01*
X108782938Y-62245753D01*
X108651155Y-62245753D01*
X108573247Y-62266628D01*
X108523856Y-62279862D01*
X108409737Y-62345749D01*
X108409736Y-62345750D01*
X108409733Y-62345752D01*
X108409733Y-62345753D01*
X106409734Y-64345755D01*
X106409733Y-64345757D01*
X106409732Y-64345756D01*
X106316550Y-64438939D01*
X106316548Y-64438941D01*
X106316548Y-64438942D01*
X106250656Y-64553071D01*
X106225554Y-64646755D01*
X106216548Y-64680365D01*
X106216548Y-65497934D01*
X106197641Y-65556125D01*
X106187552Y-65567938D01*
X104816547Y-66938943D01*
X104750655Y-67053070D01*
X104750656Y-67053071D01*
X104717753Y-67175869D01*
X104716548Y-67180365D01*
X104716548Y-71318761D01*
X104697641Y-71376952D01*
X104670984Y-71402101D01*
X104658868Y-71409869D01*
X104650643Y-71415425D01*
X104619313Y-71437704D01*
X104611437Y-71443594D01*
X104611420Y-71443607D01*
X104599799Y-71452738D01*
X104581168Y-71467380D01*
X104573649Y-71473585D01*
X104544602Y-71498746D01*
X104537340Y-71505346D01*
X104509541Y-71531849D01*
X104502627Y-71538765D01*
X104476144Y-71566543D01*
X104476139Y-71566549D01*
X104469547Y-71573802D01*
X104466386Y-71577450D01*
X104444408Y-71602822D01*
X104438142Y-71610415D01*
X104415791Y-71638857D01*
X104414402Y-71640626D01*
X104413230Y-71642192D01*
X104408488Y-71648533D01*
X104386225Y-71679841D01*
X104386203Y-71679874D01*
X104380675Y-71688057D01*
X104373337Y-71699502D01*
X104359852Y-71720536D01*
X104354730Y-71728966D01*
X104335454Y-71762492D01*
X104330679Y-71771283D01*
X104313040Y-71805722D01*
X104308677Y-71814777D01*
X104292669Y-71850186D01*
X104288743Y-71859470D01*
X104274414Y-71895813D01*
X104270929Y-71905332D01*
X104258353Y-71942496D01*
X104255334Y-71952208D01*
X104244549Y-71990187D01*
X104241994Y-72000120D01*
X104233065Y-72038809D01*
X104230999Y-72048907D01*
X104223967Y-72088287D01*
X104222403Y-72098533D01*
X104217319Y-72138541D01*
X104216268Y-72148884D01*
X104213181Y-72189486D01*
X104212653Y-72199929D01*
X104211614Y-72241046D01*
X69639066Y-72241046D01*
X69639066Y-70241044D01*
X71411617Y-70241044D01*
X71411617Y-70251467D01*
X71412397Y-70282318D01*
X71412923Y-70292702D01*
X71415242Y-70323203D01*
X71416284Y-70333474D01*
X71420104Y-70363542D01*
X71421665Y-70373759D01*
X71426943Y-70403314D01*
X71429002Y-70413378D01*
X71435706Y-70442433D01*
X71438253Y-70452336D01*
X71446342Y-70480819D01*
X71449360Y-70490519D01*
X71449367Y-70490541D01*
X71458491Y-70517506D01*
X71458801Y-70518423D01*
X71462288Y-70527949D01*
X71473019Y-70555165D01*
X71476951Y-70564464D01*
X71488958Y-70591024D01*
X71493314Y-70600065D01*
X71493315Y-70600066D01*
X71506566Y-70625936D01*
X71511317Y-70634684D01*
X71525764Y-70659810D01*
X71530912Y-70668283D01*
X71536969Y-70677731D01*
X71546542Y-70692664D01*
X71552036Y-70700798D01*
X71568776Y-70724337D01*
X71574683Y-70732237D01*
X71592484Y-70754887D01*
X71598732Y-70762458D01*
X71617590Y-70784229D01*
X71624066Y-70791354D01*
X71624200Y-70791501D01*
X71644030Y-70812300D01*
X71651005Y-70819275D01*
X71671802Y-70839103D01*
X71671817Y-70839117D01*
X71679077Y-70845716D01*
X71700848Y-70864574D01*
X71705895Y-70868739D01*
X71708409Y-70870814D01*
X71731068Y-70888621D01*
X71738994Y-70894548D01*
X71762479Y-70911248D01*
X71762488Y-70911254D01*
X71762494Y-70911258D01*
X71770674Y-70916784D01*
X71795018Y-70932391D01*
X71803496Y-70937542D01*
X71828622Y-70951989D01*
X71837378Y-70956745D01*
X71863249Y-70969995D01*
X71872269Y-70974340D01*
X71898847Y-70986356D01*
X71898866Y-70986364D01*
X71908124Y-70990280D01*
X71908127Y-70990281D01*
X71935374Y-71001024D01*
X71944885Y-71004505D01*
X71944901Y-71004510D01*
X71944919Y-71004517D01*
X71962083Y-71010324D01*
X71972763Y-71013938D01*
X71982494Y-71016964D01*
X72010966Y-71025049D01*
X72020886Y-71027601D01*
X72049915Y-71034301D01*
X72060007Y-71036365D01*
X72089554Y-71041641D01*
X72099769Y-71043201D01*
X72129796Y-71047017D01*
X72140123Y-71048065D01*
X72170594Y-71050382D01*
X72170596Y-71050382D01*
X72170608Y-71050383D01*
X72175691Y-71050640D01*
X72180985Y-71050908D01*
X72188704Y-71051103D01*
X72211843Y-71051688D01*
X72211861Y-71051688D01*
X72222259Y-71051688D01*
X72244471Y-71051126D01*
X72253117Y-71050908D01*
X72258808Y-71050619D01*
X72263495Y-71050383D01*
X72263506Y-71050382D01*
X72263509Y-71050382D01*
X72293979Y-71048065D01*
X72297306Y-71047727D01*
X72304290Y-71047019D01*
X72312355Y-71045993D01*
X72334332Y-71043201D01*
X72344548Y-71041641D01*
X72374095Y-71036365D01*
X72384189Y-71034301D01*
X72413217Y-71027601D01*
X72423133Y-71025050D01*
X72451606Y-71016965D01*
X72461339Y-71013938D01*
X72489217Y-71004505D01*
X72498728Y-71001024D01*
X72525975Y-70990281D01*
X72535255Y-70986356D01*
X72561833Y-70974340D01*
X72570853Y-70969995D01*
X72596724Y-70956745D01*
X72605480Y-70951989D01*
X72630606Y-70937542D01*
X72639084Y-70932391D01*
X72663428Y-70916784D01*
X72671612Y-70911256D01*
X72695135Y-70894528D01*
X72703012Y-70888637D01*
X72725679Y-70870825D01*
X72733257Y-70864571D01*
X72755027Y-70845713D01*
X72762281Y-70839120D01*
X72783119Y-70819253D01*
X72790046Y-70812326D01*
X72809913Y-70791489D01*
X72816512Y-70784229D01*
X72835370Y-70762458D01*
X72841618Y-70754887D01*
X72859430Y-70732221D01*
X72865326Y-70724336D01*
X72882054Y-70700812D01*
X72887580Y-70692632D01*
X72903187Y-70668288D01*
X72908338Y-70659810D01*
X72922785Y-70634684D01*
X72927539Y-70625931D01*
X72940789Y-70600061D01*
X72945136Y-70591038D01*
X72957152Y-70564460D01*
X72961077Y-70555180D01*
X72971820Y-70527933D01*
X72975302Y-70518420D01*
X72984735Y-70490541D01*
X72987760Y-70480812D01*
X72995845Y-70452340D01*
X72998397Y-70442422D01*
X73005097Y-70413394D01*
X73007160Y-70403307D01*
X73012437Y-70373760D01*
X73013999Y-70363530D01*
X73017814Y-70333502D01*
X73018861Y-70323184D01*
X73021178Y-70292714D01*
X73021704Y-70282328D01*
X73022485Y-70251452D01*
X73022485Y-70241060D01*
X73021704Y-70210184D01*
X73021178Y-70199799D01*
X73018861Y-70169328D01*
X73017814Y-70159009D01*
X73015318Y-70139365D01*
X73026739Y-70079257D01*
X73043520Y-70056887D01*
X74374658Y-68725751D01*
X74429175Y-68697974D01*
X74444662Y-68696755D01*
X79276357Y-68696755D01*
X79276359Y-68696755D01*
X79390936Y-68666054D01*
X79493663Y-68606745D01*
X82577539Y-65522869D01*
X82636848Y-65420142D01*
X82667549Y-65305565D01*
X82667549Y-65186946D01*
X82667549Y-62700522D01*
X90016701Y-62700522D01*
X90016701Y-62700524D01*
X90016701Y-62791980D01*
X90056383Y-62874379D01*
X90127886Y-62931401D01*
X90217049Y-62951752D01*
X103217042Y-62951752D01*
X103217047Y-62951752D01*
X103240056Y-62950460D01*
X103326380Y-62920254D01*
X103391049Y-62855585D01*
X103421255Y-62769261D01*
X103411015Y-62678380D01*
X103362358Y-62600942D01*
X101362360Y-60600942D01*
X101362356Y-60600939D01*
X101362355Y-60600938D01*
X101306213Y-60561104D01*
X101306214Y-60561104D01*
X101306212Y-60561103D01*
X101217049Y-60540752D01*
X92217049Y-60540752D01*
X92205518Y-60542711D01*
X92149178Y-60552283D01*
X92071742Y-60600939D01*
X90071729Y-62600952D01*
X90056384Y-62618123D01*
X90016701Y-62700522D01*
X82667549Y-62700522D01*
X82667549Y-61186943D01*
X82636848Y-61072366D01*
X82577539Y-60969639D01*
X82577536Y-60969636D01*
X82493663Y-60885762D01*
X82493663Y-60885763D01*
X81808422Y-60200522D01*
X86016701Y-60200522D01*
X86016701Y-60200524D01*
X86016701Y-60291980D01*
X86056383Y-60374379D01*
X86127886Y-60431401D01*
X86217049Y-60451752D01*
X89217048Y-60451752D01*
X89217049Y-60451752D01*
X89284921Y-60440220D01*
X89362359Y-60391562D01*
X91273173Y-58480748D01*
X91327690Y-58452971D01*
X91343177Y-58451752D01*
X102090919Y-58451752D01*
X102149110Y-58470659D01*
X102160923Y-58480748D01*
X104071737Y-60391562D01*
X104127884Y-60431401D01*
X104217047Y-60451752D01*
X104217048Y-60451752D01*
X107217046Y-60451752D01*
X107217047Y-60451752D01*
X107262775Y-60446600D01*
X107345174Y-60406918D01*
X107402196Y-60335415D01*
X107422547Y-60246252D01*
X107422547Y-59246252D01*
X107411015Y-59178380D01*
X107362357Y-59100942D01*
X105362357Y-57100942D01*
X105306210Y-57061103D01*
X105217047Y-57040752D01*
X88217049Y-57040752D01*
X88217040Y-57040752D01*
X88199564Y-57041496D01*
X88199563Y-57041496D01*
X88112453Y-57069362D01*
X88046060Y-57132264D01*
X86046063Y-60132258D01*
X86046062Y-60132261D01*
X86016701Y-60200522D01*
X81808422Y-60200522D01*
X81560330Y-59952430D01*
X81208032Y-59600132D01*
X80493663Y-58885763D01*
X80390936Y-58826454D01*
X80276359Y-58795753D01*
X80157741Y-58795753D01*
X80157739Y-58795753D01*
X80151310Y-58796600D01*
X80151133Y-58795258D01*
X80097097Y-58792418D01*
X80062587Y-58770003D01*
X79398444Y-58105861D01*
X78902104Y-57609521D01*
X78331777Y-57039194D01*
X78331774Y-57039192D01*
X78331773Y-57039191D01*
X78326628Y-57035243D01*
X78327119Y-57034602D01*
X78316635Y-57026557D01*
X75686977Y-54396897D01*
X75659200Y-54342380D01*
X75657981Y-54326893D01*
X75657981Y-52256566D01*
X75657981Y-52256565D01*
X75627280Y-52141988D01*
X75567971Y-52039261D01*
X75567968Y-52039258D01*
X75517661Y-51988950D01*
X75489884Y-51934433D01*
X75488665Y-51918947D01*
X75488665Y-51662919D01*
X75466638Y-51580714D01*
X75463265Y-51555091D01*
X75463265Y-48905119D01*
X75439379Y-48815976D01*
X75393235Y-48736052D01*
X75327977Y-48670794D01*
X75248053Y-48624650D01*
X75158910Y-48600764D01*
X75066622Y-48600764D01*
X74977479Y-48624650D01*
X74897555Y-48670794D01*
X74832297Y-48736052D01*
X74786153Y-48815976D01*
X74762267Y-48905119D01*
X74762267Y-51997406D01*
X74784294Y-52079611D01*
X74787667Y-52105234D01*
X74787667Y-52129016D01*
X74784293Y-52154639D01*
X74756983Y-52256565D01*
X74756983Y-54375183D01*
X74787684Y-54489760D01*
X74846993Y-54592487D01*
X74930869Y-54676363D01*
X74930871Y-54676364D01*
X75024188Y-54730241D01*
X75044691Y-54745972D01*
X77908238Y-57609521D01*
X77908240Y-57609522D01*
X77908243Y-57609525D01*
X77913389Y-57613474D01*
X77912896Y-57614116D01*
X77923383Y-57622160D01*
X78902764Y-58601541D01*
X79901354Y-59600132D01*
X79901356Y-59600133D01*
X79901359Y-59600136D01*
X79901358Y-59600136D01*
X79966894Y-59637971D01*
X79987400Y-59653704D01*
X81737555Y-61403859D01*
X81765332Y-61458376D01*
X81766551Y-61473863D01*
X81766551Y-61955559D01*
X81747644Y-62013750D01*
X81698144Y-62049714D01*
X81636958Y-62049714D01*
X81597547Y-62025563D01*
X80744644Y-61172661D01*
X79677971Y-60105988D01*
X79672832Y-60102045D01*
X79673278Y-60101462D01*
X79662361Y-60093082D01*
X79310184Y-59740904D01*
X79310184Y-59740905D01*
X79310183Y-59740904D01*
X79169411Y-59600132D01*
X78076409Y-58507131D01*
X78076406Y-58507129D01*
X78076403Y-58507126D01*
X78068121Y-58502345D01*
X78047615Y-58486612D01*
X76662966Y-57101961D01*
X76647234Y-57081457D01*
X76619056Y-57032652D01*
X76619055Y-57032650D01*
X73738061Y-54151656D01*
X73710284Y-54097139D01*
X73709065Y-54081652D01*
X73709065Y-50192555D01*
X73709065Y-50192554D01*
X73678364Y-50077977D01*
X73619055Y-49975250D01*
X73535179Y-49891374D01*
X73432452Y-49832065D01*
X73317875Y-49801364D01*
X73199257Y-49801364D01*
X73084680Y-49832065D01*
X72981953Y-49891374D01*
X72898077Y-49975250D01*
X72838768Y-50077977D01*
X72808067Y-50192554D01*
X72808067Y-52259354D01*
X72808067Y-54377972D01*
X72838768Y-54492549D01*
X72898077Y-54595276D01*
X72981953Y-54679152D01*
X72981955Y-54679153D01*
X72981956Y-54679154D01*
X72992901Y-54685473D01*
X73013408Y-54701207D01*
X75791164Y-57478963D01*
X75806896Y-57499466D01*
X75828880Y-57537542D01*
X75835077Y-57548276D01*
X76711370Y-58424569D01*
X77400458Y-59113657D01*
X77416189Y-59134159D01*
X77428337Y-59155199D01*
X77428339Y-59155202D01*
X78665571Y-60392432D01*
X79575707Y-61302569D01*
X79680203Y-61362899D01*
X79680205Y-61362899D01*
X79680206Y-61362900D01*
X79738477Y-61378514D01*
X79796749Y-61394128D01*
X79796751Y-61394129D01*
X79796752Y-61394129D01*
X79917403Y-61394129D01*
X79917412Y-61394129D01*
X79917420Y-61394126D01*
X79919665Y-61393831D01*
X79921274Y-61394129D01*
X79923901Y-61394129D01*
X79923901Y-61394615D01*
X79979827Y-61404975D01*
X80002602Y-61421979D01*
X81083271Y-62502648D01*
X81111048Y-62557165D01*
X81112267Y-62572652D01*
X81112267Y-64227997D01*
X81093360Y-64286188D01*
X81083271Y-64298001D01*
X79510541Y-65870731D01*
X79456024Y-65898508D01*
X79440537Y-65899727D01*
X75291041Y-65899727D01*
X75265420Y-65896354D01*
X75263197Y-65895758D01*
X75263195Y-65895758D01*
X75170906Y-65895758D01*
X75156094Y-65899727D01*
X75081761Y-65919644D01*
X75001842Y-65965784D01*
X73852781Y-67114844D01*
X73798264Y-67142621D01*
X73774787Y-67143283D01*
X73774771Y-67143504D01*
X73753213Y-67141866D01*
X73742832Y-67141340D01*
X73722265Y-67140820D01*
X73722251Y-67140820D01*
X73711851Y-67140820D01*
X73711837Y-67140820D01*
X73691271Y-67141340D01*
X73680887Y-67141866D01*
X73660590Y-67143408D01*
X73650246Y-67144458D01*
X73630229Y-67147001D01*
X73620020Y-67148560D01*
X73600294Y-67152084D01*
X73590242Y-67154140D01*
X73570866Y-67158611D01*
X73560954Y-67161161D01*
X73550842Y-67164032D01*
X73541967Y-67166553D01*
X73532236Y-67169579D01*
X73527108Y-67171314D01*
X73513645Y-67175869D01*
X73504148Y-67179345D01*
X73485974Y-67186511D01*
X73479927Y-67189069D01*
X73476703Y-67190433D01*
X73476699Y-67190435D01*
X73458961Y-67198453D01*
X73449960Y-67202789D01*
X73432714Y-67211623D01*
X73432703Y-67211629D01*
X73423958Y-67216379D01*
X73423955Y-67216381D01*
X73407191Y-67226019D01*
X73398742Y-67231152D01*
X73382472Y-67241583D01*
X73374325Y-67247087D01*
X73358643Y-67258237D01*
X73350741Y-67264147D01*
X73335617Y-67276033D01*
X73328084Y-67282250D01*
X73313531Y-67294856D01*
X73306303Y-67301424D01*
X73292411Y-67314669D01*
X73285489Y-67321589D01*
X73272230Y-67335497D01*
X73265608Y-67342783D01*
X73253067Y-67357261D01*
X73246813Y-67364840D01*
X73236123Y-67378445D01*
X73234934Y-67379959D01*
X73229045Y-67387833D01*
X73229022Y-67387864D01*
X73217907Y-67403494D01*
X73212353Y-67411715D01*
X73201968Y-67427913D01*
X73196822Y-67436386D01*
X73187170Y-67453170D01*
X73182428Y-67461900D01*
X73173583Y-67479170D01*
X73169248Y-67488167D01*
X73161227Y-67505907D01*
X73157318Y-67515154D01*
X73150144Y-67533350D01*
X73146655Y-67542881D01*
X73140381Y-67561424D01*
X73137349Y-67571173D01*
X73131958Y-67590157D01*
X73129407Y-67600072D01*
X73124942Y-67619414D01*
X73122880Y-67629499D01*
X73119356Y-67649236D01*
X73117797Y-67659442D01*
X73115257Y-67679433D01*
X73114208Y-67689775D01*
X73112661Y-67710112D01*
X73112136Y-67720484D01*
X73111617Y-67741047D01*
X73111617Y-67751464D01*
X73112136Y-67772027D01*
X73112661Y-67782403D01*
X73114209Y-67802749D01*
X73115256Y-67813066D01*
X73117796Y-67833054D01*
X73119358Y-67843287D01*
X73122876Y-67862989D01*
X73124944Y-67873096D01*
X73129411Y-67892451D01*
X73131962Y-67902368D01*
X73137340Y-67921307D01*
X73140388Y-67931108D01*
X73146655Y-67949629D01*
X73150144Y-67959160D01*
X73157318Y-67977356D01*
X73161227Y-67986603D01*
X73169240Y-68004326D01*
X73173591Y-68013356D01*
X73173592Y-68013357D01*
X73182426Y-68030604D01*
X73187176Y-68039349D01*
X73196807Y-68056100D01*
X73196816Y-68056115D01*
X73201949Y-68064564D01*
X73212380Y-68080834D01*
X73216878Y-68087492D01*
X73217890Y-68088990D01*
X73229042Y-68104673D01*
X73229055Y-68104690D01*
X73229059Y-68104696D01*
X73234928Y-68112546D01*
X73239445Y-68118293D01*
X73246812Y-68127668D01*
X73253061Y-68135240D01*
X73265633Y-68149754D01*
X73272235Y-68157018D01*
X73285480Y-68170909D01*
X73292402Y-68177831D01*
X73306294Y-68191076D01*
X73313553Y-68197673D01*
X73328067Y-68210245D01*
X73335639Y-68216494D01*
X73347172Y-68225557D01*
X73350760Y-68228377D01*
X73358634Y-68234264D01*
X73374317Y-68245416D01*
X73382500Y-68250943D01*
X73382515Y-68250953D01*
X73396417Y-68259866D01*
X73435201Y-68307189D01*
X73438761Y-68368271D01*
X73412990Y-68413213D01*
X72406423Y-69419780D01*
X72351906Y-69447557D01*
X72323937Y-69447986D01*
X72304290Y-69445489D01*
X72293996Y-69444444D01*
X72263495Y-69442124D01*
X72253110Y-69441599D01*
X72222259Y-69440820D01*
X72222241Y-69440820D01*
X72211861Y-69440820D01*
X72211843Y-69440820D01*
X72180991Y-69441599D01*
X72170608Y-69442124D01*
X72140141Y-69444441D01*
X72129774Y-69445493D01*
X72099763Y-69449307D01*
X72089562Y-69450865D01*
X72060004Y-69456143D01*
X72049915Y-69458207D01*
X72020886Y-69464907D01*
X72014610Y-69466521D01*
X72010973Y-69467457D01*
X72010966Y-69467459D01*
X71982494Y-69475544D01*
X71982476Y-69475549D01*
X71982464Y-69475553D01*
X71972758Y-69478571D01*
X71944919Y-69487990D01*
X71939932Y-69489815D01*
X71935374Y-69491484D01*
X71935359Y-69491490D01*
X71908124Y-69502227D01*
X71898866Y-69506143D01*
X71872260Y-69518172D01*
X71863233Y-69522520D01*
X71837401Y-69535751D01*
X71837378Y-69535763D01*
X71828622Y-69540519D01*
X71828612Y-69540525D01*
X71803494Y-69554966D01*
X71795021Y-69560114D01*
X71770667Y-69575728D01*
X71762479Y-69581259D01*
X71738994Y-69597959D01*
X71731068Y-69603886D01*
X71708409Y-69621693D01*
X71700868Y-69627917D01*
X71700855Y-69627927D01*
X71700848Y-69627934D01*
X71679077Y-69646792D01*
X71679073Y-69646796D01*
X71671804Y-69653402D01*
X71650985Y-69673251D01*
X71644050Y-69680187D01*
X71624202Y-69701005D01*
X71617588Y-69708282D01*
X71598734Y-69730047D01*
X71592468Y-69737640D01*
X71574679Y-69760278D01*
X71568775Y-69768173D01*
X71552063Y-69791672D01*
X71546513Y-69799889D01*
X71530914Y-69824221D01*
X71525752Y-69832719D01*
X71511321Y-69857818D01*
X71506549Y-69866601D01*
X71493315Y-69892440D01*
X71488964Y-69901470D01*
X71476951Y-69928045D01*
X71473028Y-69937322D01*
X71462285Y-69964569D01*
X71458797Y-69974098D01*
X71449368Y-70001963D01*
X71446341Y-70011699D01*
X71438259Y-70040157D01*
X71435706Y-70050083D01*
X71429003Y-70079129D01*
X71426937Y-70089227D01*
X71421666Y-70118744D01*
X71420103Y-70128973D01*
X71416284Y-70159036D01*
X71415243Y-70169305D01*
X71412923Y-70199810D01*
X71412397Y-70210193D01*
X71411617Y-70241044D01*
X69639066Y-70241044D01*
X69639066Y-44246252D01*
X70511551Y-44246252D01*
X70511551Y-48246253D01*
X70516702Y-48291979D01*
X70556385Y-48374379D01*
X70627888Y-48431401D01*
X70717051Y-48451752D01*
X72217050Y-48451752D01*
X72217051Y-48451752D01*
X72262779Y-48446600D01*
X72345178Y-48406918D01*
X72402200Y-48335415D01*
X72422551Y-48246252D01*
X72422551Y-44246252D01*
X72417399Y-44200524D01*
X72377717Y-44118125D01*
X72306214Y-44061103D01*
X72306213Y-44061102D01*
X72217051Y-44040752D01*
X70717051Y-44040752D01*
X70717049Y-44040752D01*
X70671323Y-44045903D01*
X70588923Y-44085586D01*
X70531901Y-44157089D01*
X70511551Y-44246252D01*
X69639066Y-44246252D01*
X69639066Y-39246254D01*
X70511551Y-39246254D01*
X70511551Y-43246255D01*
X70516702Y-43291981D01*
X70556385Y-43374381D01*
X70627888Y-43431403D01*
X70717051Y-43451754D01*
X72217050Y-43451754D01*
X72217051Y-43451754D01*
X72262779Y-43446602D01*
X72345178Y-43406920D01*
X72402200Y-43335417D01*
X72422551Y-43246254D01*
X72422551Y-39246254D01*
X72417399Y-39200526D01*
X72377717Y-39118127D01*
X72306214Y-39061105D01*
X72306213Y-39061104D01*
X72217051Y-39040754D01*
X70717051Y-39040754D01*
X70717049Y-39040754D01*
X70671323Y-39045905D01*
X70588923Y-39085588D01*
X70531901Y-39157091D01*
X70511551Y-39246254D01*
X69639066Y-39246254D01*
X69639066Y-37448370D01*
X80886066Y-37448370D01*
X80886066Y-53105155D01*
X80916145Y-53217414D01*
X80920175Y-53232453D01*
X80986062Y-53346572D01*
X80986064Y-53346574D01*
X80986066Y-53346577D01*
X81079252Y-53439763D01*
X81079254Y-53439764D01*
X81079256Y-53439766D01*
X81193376Y-53505653D01*
X81193374Y-53505653D01*
X81193378Y-53505654D01*
X81193380Y-53505655D01*
X81320674Y-53539763D01*
X81320676Y-53539763D01*
X111448086Y-53539763D01*
X111448088Y-53539763D01*
X111575382Y-53505655D01*
X111575384Y-53505653D01*
X111575386Y-53505653D01*
X111689505Y-53439766D01*
X111689505Y-53439765D01*
X111689510Y-53439763D01*
X111782696Y-53346577D01*
X111848588Y-53232449D01*
X111882696Y-53105155D01*
X111882696Y-44246252D01*
X121011547Y-44246252D01*
X121011547Y-48246253D01*
X121016698Y-48291979D01*
X121056381Y-48374379D01*
X121127884Y-48431401D01*
X121217047Y-48451752D01*
X122717046Y-48451752D01*
X122717047Y-48451752D01*
X122762775Y-48446600D01*
X122845174Y-48406918D01*
X122902196Y-48335415D01*
X122922547Y-48246252D01*
X122922547Y-44246252D01*
X122917395Y-44200524D01*
X122877713Y-44118125D01*
X122806210Y-44061103D01*
X122806209Y-44061102D01*
X122717047Y-44040752D01*
X121217047Y-44040752D01*
X121217045Y-44040752D01*
X121171319Y-44045903D01*
X121088919Y-44085586D01*
X121031897Y-44157089D01*
X121011547Y-44246252D01*
X111882696Y-44246252D01*
X111882696Y-39246254D01*
X121011547Y-39246254D01*
X121011547Y-43246255D01*
X121016698Y-43291981D01*
X121056381Y-43374381D01*
X121127884Y-43431403D01*
X121217047Y-43451754D01*
X122717046Y-43451754D01*
X122717047Y-43451754D01*
X122762775Y-43446602D01*
X122845174Y-43406920D01*
X122902196Y-43335417D01*
X122922547Y-43246254D01*
X122922547Y-39246254D01*
X122917395Y-39200526D01*
X122877713Y-39118127D01*
X122806210Y-39061105D01*
X122806209Y-39061104D01*
X122717047Y-39040754D01*
X121217047Y-39040754D01*
X121217045Y-39040754D01*
X121171319Y-39045905D01*
X121088919Y-39085588D01*
X121031897Y-39157091D01*
X121011547Y-39246254D01*
X111882696Y-39246254D01*
X111882696Y-37448370D01*
X111848588Y-37321076D01*
X111848586Y-37321073D01*
X111848586Y-37321071D01*
X111782699Y-37206952D01*
X111782697Y-37206950D01*
X111782696Y-37206948D01*
X111689510Y-37113762D01*
X111689507Y-37113760D01*
X111689505Y-37113758D01*
X111575385Y-37047871D01*
X111575387Y-37047871D01*
X111525995Y-37034637D01*
X111448088Y-37013762D01*
X81452458Y-37013762D01*
X81320674Y-37013762D01*
X81242766Y-37034637D01*
X81193375Y-37047871D01*
X81079256Y-37113758D01*
X80986062Y-37206952D01*
X80920175Y-37321071D01*
X80920174Y-37321076D01*
X80886066Y-37448370D01*
X69639066Y-37448370D01*
X69639066Y-31241047D01*
X74411617Y-31241047D01*
X74411617Y-31251464D01*
X74412396Y-31282315D01*
X74412921Y-31292700D01*
X74415241Y-31323201D01*
X74416287Y-31333506D01*
X74420101Y-31363524D01*
X74421664Y-31373758D01*
X74426940Y-31403301D01*
X74429002Y-31413384D01*
X74429004Y-31413391D01*
X74435704Y-31442420D01*
X74438256Y-31452340D01*
X74446341Y-31480812D01*
X74446349Y-31480840D01*
X74446350Y-31480841D01*
X74449364Y-31490534D01*
X74458802Y-31518428D01*
X74462275Y-31527917D01*
X74473030Y-31555190D01*
X74476950Y-31564461D01*
X74488960Y-31591028D01*
X74493315Y-31600067D01*
X74506549Y-31625908D01*
X74506560Y-31625928D01*
X74511319Y-31634690D01*
X74525767Y-31659816D01*
X74530912Y-31668283D01*
X74546518Y-31692627D01*
X74546523Y-31692634D01*
X74552050Y-31700817D01*
X74566460Y-31721081D01*
X74568775Y-31724336D01*
X74574671Y-31732221D01*
X74592483Y-31754887D01*
X74598734Y-31762462D01*
X74617593Y-31784233D01*
X74624186Y-31791486D01*
X74644053Y-31812324D01*
X74650983Y-31819255D01*
X74671820Y-31839121D01*
X74679073Y-31845713D01*
X74700844Y-31864572D01*
X74708419Y-31870823D01*
X74731085Y-31888635D01*
X74738449Y-31894141D01*
X74738994Y-31894549D01*
X74762479Y-31911249D01*
X74762494Y-31911259D01*
X74770674Y-31916785D01*
X74795018Y-31932392D01*
X74803496Y-31937543D01*
X74828622Y-31951990D01*
X74837378Y-31956746D01*
X74863249Y-31969996D01*
X74872266Y-31974340D01*
X74898843Y-31986356D01*
X74908126Y-31990282D01*
X74935373Y-32001025D01*
X74944886Y-32004507D01*
X74944897Y-32004510D01*
X74944906Y-32004514D01*
X74972762Y-32013939D01*
X74972765Y-32013940D01*
X74982494Y-32016965D01*
X75010966Y-32025050D01*
X75020886Y-32027602D01*
X75049915Y-32034302D01*
X75049926Y-32034304D01*
X75049938Y-32034307D01*
X75059997Y-32036365D01*
X75068205Y-32037830D01*
X75089545Y-32041642D01*
X75098033Y-32042937D01*
X75099768Y-32043203D01*
X75099776Y-32043204D01*
X75129804Y-32047019D01*
X75129820Y-32047020D01*
X75129831Y-32047022D01*
X75132717Y-32047314D01*
X75140123Y-32048066D01*
X75170594Y-32050383D01*
X75180979Y-32050909D01*
X75192094Y-32051190D01*
X75211839Y-32051690D01*
X75211855Y-32051690D01*
X75222264Y-32051690D01*
X75253111Y-32050910D01*
X75257400Y-32050692D01*
X75263507Y-32050383D01*
X75293978Y-32048066D01*
X75302507Y-32047200D01*
X75304269Y-32047022D01*
X75304275Y-32047021D01*
X75304297Y-32047019D01*
X75334325Y-32043204D01*
X75344556Y-32041642D01*
X75369998Y-32037097D01*
X75374103Y-32036365D01*
X75384162Y-32034307D01*
X75384165Y-32034306D01*
X75384186Y-32034302D01*
X75413215Y-32027602D01*
X75423135Y-32025050D01*
X75451607Y-32016965D01*
X75461336Y-32013940D01*
X75489215Y-32004507D01*
X75498728Y-32001025D01*
X75525975Y-31990282D01*
X75535258Y-31986356D01*
X75561835Y-31974340D01*
X75570852Y-31969996D01*
X75596723Y-31956746D01*
X75605479Y-31951990D01*
X75630605Y-31937543D01*
X75639083Y-31932392D01*
X75663427Y-31916785D01*
X75671607Y-31911259D01*
X75695131Y-31894531D01*
X75703016Y-31888635D01*
X75725682Y-31870823D01*
X75733257Y-31864572D01*
X75755028Y-31845713D01*
X75762277Y-31839124D01*
X75783115Y-31819258D01*
X75790053Y-31812320D01*
X75809919Y-31791482D01*
X75816508Y-31784233D01*
X75835367Y-31762462D01*
X75841618Y-31754887D01*
X75859430Y-31732221D01*
X75865326Y-31724336D01*
X75882054Y-31700812D01*
X75887583Y-31692627D01*
X75903189Y-31668283D01*
X75908334Y-31659816D01*
X75922782Y-31634690D01*
X75927541Y-31625928D01*
X75940791Y-31600057D01*
X75945139Y-31591031D01*
X75957154Y-31564453D01*
X75961073Y-31555186D01*
X75971817Y-31527939D01*
X75975301Y-31518421D01*
X75984734Y-31490543D01*
X75987760Y-31480812D01*
X75995845Y-31452340D01*
X75998397Y-31442420D01*
X76005097Y-31413391D01*
X76007161Y-31403301D01*
X76012437Y-31373755D01*
X76013997Y-31363537D01*
X76017813Y-31333509D01*
X76018861Y-31323184D01*
X76021178Y-31292714D01*
X76021704Y-31282322D01*
X76022484Y-31251446D01*
X76022484Y-31241066D01*
X76021704Y-31210190D01*
X76021178Y-31199799D01*
X76018861Y-31169328D01*
X76017813Y-31159001D01*
X76013997Y-31128974D01*
X76012437Y-31118759D01*
X76007161Y-31089212D01*
X76006513Y-31086044D01*
X76013373Y-31025245D01*
X76033497Y-30996199D01*
X78353946Y-28675751D01*
X78408463Y-28647974D01*
X78423950Y-28646755D01*
X82962980Y-28646755D01*
X83021171Y-28665662D01*
X83045748Y-28691710D01*
X83045852Y-28691641D01*
X83046278Y-28692272D01*
X83046315Y-28692311D01*
X83046510Y-28692615D01*
X83052050Y-28700817D01*
X83064483Y-28718301D01*
X83068775Y-28724336D01*
X83074671Y-28732221D01*
X83092483Y-28754887D01*
X83098734Y-28762462D01*
X83109036Y-28774355D01*
X83117606Y-28784248D01*
X83123360Y-28790578D01*
X83124182Y-28791482D01*
X83144048Y-28812320D01*
X83150986Y-28819258D01*
X83171824Y-28839124D01*
X83171833Y-28839132D01*
X83179057Y-28845699D01*
X83179069Y-28845710D01*
X83179073Y-28845713D01*
X83200844Y-28864572D01*
X83208419Y-28870823D01*
X83231085Y-28888635D01*
X83238449Y-28894141D01*
X83238994Y-28894549D01*
X83262479Y-28911249D01*
X83262494Y-28911259D01*
X83270674Y-28916785D01*
X83291849Y-28930360D01*
X83295021Y-28932394D01*
X83297203Y-28933720D01*
X83303496Y-28937543D01*
X83328622Y-28951990D01*
X83337378Y-28956746D01*
X83363249Y-28969996D01*
X83372266Y-28974340D01*
X83398843Y-28986356D01*
X83408126Y-28990282D01*
X83435373Y-29001025D01*
X83444886Y-29004507D01*
X83444897Y-29004510D01*
X83444906Y-29004514D01*
X83472750Y-29013935D01*
X83472765Y-29013940D01*
X83482494Y-29016965D01*
X83506345Y-29023738D01*
X83510969Y-29025051D01*
X83513298Y-29025650D01*
X83520884Y-29027602D01*
X83549912Y-29034302D01*
X83559999Y-29036365D01*
X83589546Y-29041642D01*
X83599776Y-29043204D01*
X83629804Y-29047019D01*
X83629820Y-29047020D01*
X83629831Y-29047022D01*
X83640102Y-29048064D01*
X83640122Y-29048066D01*
X83670592Y-29050383D01*
X83680978Y-29050909D01*
X83692093Y-29051190D01*
X83711838Y-29051690D01*
X83711854Y-29051690D01*
X83722262Y-29051690D01*
X83741246Y-29051209D01*
X83753122Y-29050909D01*
X83763508Y-29050383D01*
X83793978Y-29048066D01*
X83797202Y-29047738D01*
X83804268Y-29047022D01*
X83804274Y-29047021D01*
X83804296Y-29047019D01*
X83834324Y-29043204D01*
X83844554Y-29041642D01*
X83874101Y-29036365D01*
X83884188Y-29034302D01*
X83913216Y-29027602D01*
X83923132Y-29025051D01*
X83951605Y-29016966D01*
X83961338Y-29013939D01*
X83989216Y-29004506D01*
X83998727Y-29001025D01*
X84025974Y-28990282D01*
X84035254Y-28986357D01*
X84061832Y-28974341D01*
X84070852Y-28969996D01*
X84096723Y-28956746D01*
X84105479Y-28951990D01*
X84115310Y-28946337D01*
X84175176Y-28933720D01*
X84222031Y-28951479D01*
X84235809Y-28961277D01*
X84243989Y-28966803D01*
X84255747Y-28974341D01*
X84268336Y-28982412D01*
X84274842Y-28986365D01*
X84276811Y-28987561D01*
X84301937Y-29002008D01*
X84310693Y-29006764D01*
X84336564Y-29020014D01*
X84345581Y-29024358D01*
X84372158Y-29036374D01*
X84381441Y-29040300D01*
X84408688Y-29051043D01*
X84418201Y-29054525D01*
X84418212Y-29054528D01*
X84418221Y-29054532D01*
X84446065Y-29063953D01*
X84446080Y-29063958D01*
X84455809Y-29066983D01*
X84479660Y-29073756D01*
X84484284Y-29075069D01*
X84486570Y-29075657D01*
X84494199Y-29077620D01*
X84523227Y-29084320D01*
X84533314Y-29086383D01*
X84562861Y-29091660D01*
X84573091Y-29093222D01*
X84603119Y-29097037D01*
X84603135Y-29097038D01*
X84603146Y-29097040D01*
X84613417Y-29098082D01*
X84613437Y-29098084D01*
X84643907Y-29100401D01*
X84654293Y-29100927D01*
X84665408Y-29101208D01*
X84685153Y-29101708D01*
X84685169Y-29101708D01*
X84695577Y-29101708D01*
X84714561Y-29101227D01*
X84726437Y-29100927D01*
X84736823Y-29100401D01*
X84767293Y-29098084D01*
X84770517Y-29097756D01*
X84777583Y-29097040D01*
X84777589Y-29097039D01*
X84777611Y-29097037D01*
X84807639Y-29093222D01*
X84817869Y-29091660D01*
X84847416Y-29086383D01*
X84857503Y-29084320D01*
X84886531Y-29077620D01*
X84896447Y-29075069D01*
X84924920Y-29066984D01*
X84934653Y-29063957D01*
X84962531Y-29054524D01*
X84972042Y-29051043D01*
X84999289Y-29040300D01*
X85008569Y-29036375D01*
X85035147Y-29024359D01*
X85044167Y-29020014D01*
X85070038Y-29006764D01*
X85078794Y-29002008D01*
X85103920Y-28987561D01*
X85112398Y-28982410D01*
X85136742Y-28966803D01*
X85144922Y-28961277D01*
X85168446Y-28944549D01*
X85176331Y-28938653D01*
X85198997Y-28920841D01*
X85206575Y-28914587D01*
X85228345Y-28895728D01*
X85235591Y-28889142D01*
X85256429Y-28869276D01*
X85263363Y-28862342D01*
X85283230Y-28841504D01*
X85289826Y-28834247D01*
X85308684Y-28812476D01*
X85314932Y-28804905D01*
X85325488Y-28791472D01*
X85332732Y-28782255D01*
X85332744Y-28782239D01*
X85338637Y-28774359D01*
X85355366Y-28750835D01*
X85360898Y-28742645D01*
X85376504Y-28718301D01*
X85381652Y-28709828D01*
X85396099Y-28684702D01*
X85400852Y-28675951D01*
X85414103Y-28650080D01*
X85414108Y-28650068D01*
X85414117Y-28650052D01*
X85418451Y-28641056D01*
X85430464Y-28614481D01*
X85430469Y-28614471D01*
X85434391Y-28605197D01*
X85445134Y-28577950D01*
X85448613Y-28568445D01*
X85458047Y-28540567D01*
X85461075Y-28530830D01*
X85469160Y-28502358D01*
X85471712Y-28492438D01*
X85478412Y-28463409D01*
X85480476Y-28453319D01*
X85485752Y-28423773D01*
X85487312Y-28413555D01*
X85491128Y-28383527D01*
X85492176Y-28373202D01*
X85494493Y-28342732D01*
X85495019Y-28332340D01*
X85495799Y-28301464D01*
X85495799Y-28291084D01*
X85495742Y-28288836D01*
X85495019Y-28260214D01*
X85494494Y-28249831D01*
X85492177Y-28219364D01*
X85492176Y-28219346D01*
X85491128Y-28209019D01*
X85487312Y-28178992D01*
X85485752Y-28168777D01*
X85481948Y-28147475D01*
X85490331Y-28086869D01*
X85509399Y-28060072D01*
X87338538Y-26230932D01*
X87366124Y-26212502D01*
X87366016Y-26212314D01*
X87368895Y-26210651D01*
X87370664Y-26209470D01*
X87371623Y-26209072D01*
X87371636Y-26209069D01*
X87462961Y-26156342D01*
X87537528Y-26081775D01*
X87541042Y-26075688D01*
X87590253Y-25990454D01*
X87590253Y-25990452D01*
X87590255Y-25990450D01*
X87617548Y-25888590D01*
X87617548Y-20193528D01*
X87614021Y-20180364D01*
X107716548Y-20180364D01*
X107716548Y-20312148D01*
X107730340Y-20363623D01*
X107733713Y-20389349D01*
X107725725Y-27895949D01*
X107725725Y-27895950D01*
X107725715Y-27905130D01*
X107722113Y-27924279D01*
X107725645Y-27970774D01*
X107725641Y-27974596D01*
X107725596Y-28017420D01*
X107725596Y-28017422D01*
X107728254Y-28027381D01*
X107731315Y-28045401D01*
X107732096Y-28055683D01*
X107746284Y-28096097D01*
X107747549Y-28099701D01*
X107759570Y-28144752D01*
X107769294Y-28161638D01*
X107772335Y-28170297D01*
X107775750Y-28180024D01*
X107775751Y-28180025D01*
X107775752Y-28180028D01*
X107791163Y-28202582D01*
X107799914Y-28215389D01*
X107803963Y-28221833D01*
X107820087Y-28249831D01*
X107825340Y-28258951D01*
X107839108Y-28272748D01*
X107850101Y-28288836D01*
X107885476Y-28319215D01*
X107918426Y-28352235D01*
X107927349Y-28357399D01*
X107942256Y-28367976D01*
X108707391Y-29025051D01*
X109798879Y-29962389D01*
X109832052Y-29995562D01*
X109848699Y-30005173D01*
X109863278Y-30017693D01*
X109894284Y-30032584D01*
X109902169Y-30036372D01*
X109908804Y-30039874D01*
X109946181Y-30061454D01*
X109953083Y-30063303D01*
X109955829Y-30064039D01*
X109955828Y-30064039D01*
X109964750Y-30066429D01*
X109982070Y-30074749D01*
X110028165Y-30083421D01*
X110073474Y-30095562D01*
X110083460Y-30095562D01*
X110101763Y-30097268D01*
X110111582Y-30099116D01*
X110111582Y-30099115D01*
X110111583Y-30099116D01*
X110135891Y-30097269D01*
X110154607Y-30095846D01*
X110162107Y-30095562D01*
X114044534Y-30095562D01*
X114102725Y-30114469D01*
X114116891Y-30126994D01*
X117505403Y-33755897D01*
X117716004Y-33981438D01*
X117741899Y-34036874D01*
X117742645Y-34049097D01*
X117742296Y-34421944D01*
X117723334Y-34480117D01*
X117700671Y-34502530D01*
X117679118Y-34517856D01*
X117671255Y-34523735D01*
X117644815Y-34544513D01*
X117637232Y-34550771D01*
X117611819Y-34572785D01*
X117604604Y-34579343D01*
X117580268Y-34602546D01*
X117573311Y-34609502D01*
X117550159Y-34633786D01*
X117543575Y-34641030D01*
X117521572Y-34666430D01*
X117515301Y-34674029D01*
X117494547Y-34700440D01*
X117494534Y-34700458D01*
X117494531Y-34700462D01*
X117488642Y-34708337D01*
X117488625Y-34708361D01*
X117469145Y-34735752D01*
X117469133Y-34735769D01*
X117469125Y-34735781D01*
X117469114Y-34735798D01*
X117463575Y-34743996D01*
X117459149Y-34750901D01*
X117445383Y-34772376D01*
X117440258Y-34780813D01*
X117440234Y-34780852D01*
X117423372Y-34810178D01*
X117418629Y-34818910D01*
X117403164Y-34849104D01*
X117398829Y-34858101D01*
X117384795Y-34889146D01*
X117380878Y-34898409D01*
X117368353Y-34930175D01*
X117364859Y-34939718D01*
X117353862Y-34972220D01*
X117350832Y-34981964D01*
X117341402Y-35015171D01*
X117338848Y-35025098D01*
X117331031Y-35058967D01*
X117328961Y-35069089D01*
X117322813Y-35103520D01*
X117321252Y-35113741D01*
X117316801Y-35148764D01*
X117315749Y-35159116D01*
X117313049Y-35194633D01*
X117312521Y-35205073D01*
X117311612Y-35241045D01*
X117311612Y-35251466D01*
X117312521Y-35287438D01*
X117313049Y-35297878D01*
X117315750Y-35333399D01*
X117316800Y-35343739D01*
X117321253Y-35378773D01*
X117322812Y-35388983D01*
X117328968Y-35423458D01*
X117331030Y-35433536D01*
X117338850Y-35467417D01*
X117341395Y-35477316D01*
X117350836Y-35510562D01*
X117353853Y-35520262D01*
X117353858Y-35520278D01*
X117355643Y-35525554D01*
X117364863Y-35552804D01*
X117368345Y-35562314D01*
X117380881Y-35594109D01*
X117384803Y-35603383D01*
X117398821Y-35634390D01*
X117399943Y-35636718D01*
X117403169Y-35643414D01*
X117406688Y-35650284D01*
X117418011Y-35672394D01*
X117418628Y-35673597D01*
X117423382Y-35682350D01*
X117423393Y-35682369D01*
X117440230Y-35711654D01*
X117445387Y-35720142D01*
X117463582Y-35748524D01*
X117469138Y-35756748D01*
X117475077Y-35765099D01*
X117488642Y-35784173D01*
X117494531Y-35792048D01*
X117494547Y-35792069D01*
X117515301Y-35818480D01*
X117521572Y-35826079D01*
X117543575Y-35851479D01*
X117550159Y-35858723D01*
X117573311Y-35883007D01*
X117573336Y-35883032D01*
X117573337Y-35883033D01*
X117580266Y-35889962D01*
X117604576Y-35913140D01*
X117604586Y-35913149D01*
X117604604Y-35913166D01*
X117611819Y-35919724D01*
X117637232Y-35941738D01*
X117644815Y-35947996D01*
X117671255Y-35968774D01*
X117679121Y-35974655D01*
X117679128Y-35974660D01*
X117679135Y-35974665D01*
X117706577Y-35994179D01*
X117706593Y-35994190D01*
X117714749Y-35999700D01*
X117714762Y-35999708D01*
X117714763Y-35999709D01*
X117743164Y-36017916D01*
X117751633Y-36023061D01*
X117780947Y-36039917D01*
X117789710Y-36044677D01*
X117819893Y-36060135D01*
X117828913Y-36064480D01*
X117828931Y-36064488D01*
X117859917Y-36078497D01*
X117869192Y-36082419D01*
X117869195Y-36082420D01*
X117900983Y-36094954D01*
X117910499Y-36098438D01*
X117943024Y-36109443D01*
X117952751Y-36112468D01*
X117985969Y-36121901D01*
X117995893Y-36124453D01*
X118029759Y-36132269D01*
X118039845Y-36134333D01*
X118074317Y-36140489D01*
X118084537Y-36142049D01*
X118119569Y-36146501D01*
X118129896Y-36147550D01*
X118165445Y-36150253D01*
X118175830Y-36150778D01*
X118175858Y-36150778D01*
X118175864Y-36150779D01*
X118211836Y-36151689D01*
X118211852Y-36151689D01*
X118222258Y-36151689D01*
X118258229Y-36150779D01*
X118258233Y-36150778D01*
X118258264Y-36150778D01*
X118268649Y-36150253D01*
X118298699Y-36147968D01*
X118304186Y-36147551D01*
X118304189Y-36147550D01*
X118304198Y-36147550D01*
X118314525Y-36146501D01*
X118349558Y-36142049D01*
X118359779Y-36140488D01*
X118378442Y-36137155D01*
X118394213Y-36134339D01*
X118394228Y-36134335D01*
X118394250Y-36134332D01*
X118404334Y-36132270D01*
X118438201Y-36124454D01*
X118448127Y-36121900D01*
X118481344Y-36112467D01*
X118491070Y-36109443D01*
X118523595Y-36098438D01*
X118533111Y-36094954D01*
X118564899Y-36082420D01*
X118574172Y-36078499D01*
X118605180Y-36064481D01*
X118614204Y-36060134D01*
X118644386Y-36044676D01*
X118653147Y-36039917D01*
X118682461Y-36023061D01*
X118690927Y-36017918D01*
X118719329Y-35999711D01*
X118727518Y-35994179D01*
X118754962Y-35974663D01*
X118762845Y-35968768D01*
X118784577Y-35951690D01*
X118789278Y-35947996D01*
X118789837Y-35947535D01*
X118796861Y-35941738D01*
X118822260Y-35919737D01*
X118829490Y-35913166D01*
X118829509Y-35913149D01*
X118853802Y-35889988D01*
X118853804Y-35889985D01*
X118853826Y-35889965D01*
X118860758Y-35883033D01*
X118863791Y-35879852D01*
X118883942Y-35858716D01*
X118887221Y-35855107D01*
X118890530Y-35851467D01*
X118912531Y-35826068D01*
X118918780Y-35818496D01*
X118926632Y-35808505D01*
X118929170Y-35805274D01*
X118939561Y-35792052D01*
X118945456Y-35784169D01*
X118964972Y-35756725D01*
X118970499Y-35748543D01*
X118970511Y-35748524D01*
X118970522Y-35748508D01*
X118988697Y-35720158D01*
X118993857Y-35711665D01*
X118993864Y-35711654D01*
X119001822Y-35697812D01*
X119047218Y-35656790D01*
X119108057Y-35650284D01*
X119161100Y-35680782D01*
X119165479Y-35685976D01*
X119169645Y-35691277D01*
X119175895Y-35698851D01*
X119191610Y-35716993D01*
X119191621Y-35717005D01*
X119198207Y-35724253D01*
X119214733Y-35741586D01*
X119214760Y-35741614D01*
X119221689Y-35748543D01*
X119221710Y-35748563D01*
X119221716Y-35748569D01*
X119239049Y-35765095D01*
X119244449Y-35770002D01*
X119246310Y-35771693D01*
X119264452Y-35787408D01*
X119272026Y-35793658D01*
X119272047Y-35793675D01*
X119290896Y-35808487D01*
X119290914Y-35808501D01*
X119298795Y-35814395D01*
X119318399Y-35828336D01*
X119318423Y-35828352D01*
X119326571Y-35833857D01*
X119326584Y-35833865D01*
X119326585Y-35833866D01*
X119346871Y-35846871D01*
X119355349Y-35852022D01*
X119376288Y-35864061D01*
X119385038Y-35868813D01*
X119406597Y-35879855D01*
X119415621Y-35884203D01*
X119437769Y-35894216D01*
X119443793Y-35896763D01*
X119447041Y-35898137D01*
X119447044Y-35898138D01*
X119469750Y-35907091D01*
X119479265Y-35910574D01*
X119502497Y-35918435D01*
X119512230Y-35921462D01*
X119535956Y-35928199D01*
X119545869Y-35930749D01*
X119570060Y-35936333D01*
X119576736Y-35937699D01*
X119580161Y-35938400D01*
X119604752Y-35942791D01*
X119604756Y-35942791D01*
X119604775Y-35942795D01*
X119615003Y-35944356D01*
X119640026Y-35947535D01*
X119650342Y-35948582D01*
X119675734Y-35950513D01*
X119686119Y-35951039D01*
X119695475Y-35951275D01*
X119711835Y-35951690D01*
X119711849Y-35951690D01*
X119722259Y-35951690D01*
X119737906Y-35951293D01*
X119747975Y-35951039D01*
X119758360Y-35950513D01*
X119783752Y-35948582D01*
X119794068Y-35947535D01*
X119819091Y-35944356D01*
X119819112Y-35944352D01*
X119819126Y-35944351D01*
X119829312Y-35942796D01*
X119836021Y-35941597D01*
X119853940Y-35938398D01*
X119864037Y-35936332D01*
X119888227Y-35930748D01*
X119888229Y-35930747D01*
X119888244Y-35930744D01*
X119893597Y-35929366D01*
X119898135Y-35928200D01*
X119921862Y-35921463D01*
X119931598Y-35918435D01*
X119954830Y-35910574D01*
X119964345Y-35907091D01*
X119987051Y-35898138D01*
X119996326Y-35894216D01*
X120018474Y-35884203D01*
X120027498Y-35879855D01*
X120049057Y-35868813D01*
X120057811Y-35864059D01*
X120078749Y-35852020D01*
X120087219Y-35846873D01*
X120107506Y-35833868D01*
X120115700Y-35828333D01*
X120135303Y-35814392D01*
X120143176Y-35808505D01*
X120143199Y-35808487D01*
X120162049Y-35793675D01*
X120163995Y-35792069D01*
X120169643Y-35787408D01*
X120187785Y-35771693D01*
X120195045Y-35765095D01*
X120212409Y-35748539D01*
X120219334Y-35741614D01*
X120235890Y-35724249D01*
X120242484Y-35716993D01*
X120258199Y-35698851D01*
X120264445Y-35691282D01*
X120279289Y-35672394D01*
X120285191Y-35664503D01*
X120299131Y-35644899D01*
X120304657Y-35636718D01*
X120317662Y-35616432D01*
X120322809Y-35607960D01*
X120334849Y-35587021D01*
X120339605Y-35578265D01*
X120350647Y-35556706D01*
X120354995Y-35547682D01*
X120365008Y-35525534D01*
X120368933Y-35516251D01*
X120377885Y-35493545D01*
X120381365Y-35484038D01*
X120389226Y-35460806D01*
X120392251Y-35451080D01*
X120398989Y-35427354D01*
X120401543Y-35417426D01*
X120407126Y-35393235D01*
X120409189Y-35383150D01*
X120413586Y-35358528D01*
X120415146Y-35348308D01*
X120418326Y-35323285D01*
X120419374Y-35312961D01*
X120421305Y-35287569D01*
X120421831Y-35277176D01*
X120421972Y-35271582D01*
X120422481Y-35251464D01*
X120422481Y-35241047D01*
X120421831Y-35215342D01*
X120421306Y-35204958D01*
X120421305Y-35204944D01*
X120419374Y-35179551D01*
X120418326Y-35169226D01*
X120415146Y-35144203D01*
X120413586Y-35133983D01*
X120409189Y-35109361D01*
X120407126Y-35099276D01*
X120401543Y-35075085D01*
X120398989Y-35065159D01*
X120392251Y-35041432D01*
X120389226Y-35031704D01*
X120381365Y-35008472D01*
X120377884Y-34998962D01*
X120368932Y-34976257D01*
X120365009Y-34966980D01*
X120359648Y-34955122D01*
X120355002Y-34944844D01*
X120350645Y-34935800D01*
X120347764Y-34930175D01*
X120339605Y-34914245D01*
X120334847Y-34905485D01*
X120334840Y-34905474D01*
X120334832Y-34905458D01*
X120322818Y-34884565D01*
X120317665Y-34876085D01*
X120306147Y-34858118D01*
X120304659Y-34855796D01*
X120299128Y-34847607D01*
X120285188Y-34828004D01*
X120285184Y-34827999D01*
X120279283Y-34820109D01*
X120264439Y-34801221D01*
X120258201Y-34793662D01*
X120247105Y-34780852D01*
X120242488Y-34775521D01*
X120235886Y-34768257D01*
X120219330Y-34750893D01*
X120212409Y-34743972D01*
X120195045Y-34727416D01*
X120195041Y-34727412D01*
X120195024Y-34727396D01*
X120187814Y-34720844D01*
X120187797Y-34720829D01*
X120187785Y-34720818D01*
X120175242Y-34709953D01*
X120143641Y-34657562D01*
X120141065Y-34635126D01*
X120141065Y-29921937D01*
X120141065Y-29921936D01*
X120113772Y-29820076D01*
X120113770Y-29820073D01*
X120113770Y-29820071D01*
X120061048Y-29728755D01*
X120059534Y-29726782D01*
X120052339Y-29716013D01*
X120046646Y-29706153D01*
X120046645Y-29706151D01*
X118472078Y-28131584D01*
X118472075Y-28131582D01*
X118472073Y-28131580D01*
X118380756Y-28078858D01*
X118380758Y-28078858D01*
X118341234Y-28068268D01*
X118278893Y-28051564D01*
X118278891Y-28051564D01*
X111881066Y-28051564D01*
X111822875Y-28032657D01*
X111811062Y-28022568D01*
X110542919Y-26754425D01*
X110515142Y-26699908D01*
X110513930Y-26683279D01*
X110585864Y-20483693D01*
X110605445Y-20425727D01*
X110614853Y-20414839D01*
X111475463Y-19554229D01*
X113917545Y-17112149D01*
X116088066Y-17112149D01*
X116088066Y-17454776D01*
X116126426Y-17795244D01*
X116202669Y-18129283D01*
X116315829Y-18452676D01*
X116315830Y-18452678D01*
X116464482Y-18761358D01*
X116464486Y-18761365D01*
X116464490Y-18761373D01*
X116646777Y-19051481D01*
X116860400Y-19319356D01*
X117102673Y-19561629D01*
X117370548Y-19775252D01*
X117660656Y-19957539D01*
X117660667Y-19957544D01*
X117660670Y-19957546D01*
X117763226Y-20006934D01*
X117969351Y-20106199D01*
X118120319Y-20159024D01*
X118292745Y-20219359D01*
X118292748Y-20219359D01*
X118292749Y-20219360D01*
X118626783Y-20295602D01*
X118967254Y-20333963D01*
X118967255Y-20333963D01*
X119309877Y-20333963D01*
X119309878Y-20333963D01*
X119650349Y-20295602D01*
X119984383Y-20219360D01*
X120307781Y-20106199D01*
X120616476Y-19957539D01*
X120906584Y-19775252D01*
X121174459Y-19561629D01*
X121416732Y-19319356D01*
X121630355Y-19051481D01*
X121812642Y-18761373D01*
X121961302Y-18452678D01*
X122074463Y-18129280D01*
X122150705Y-17795246D01*
X122189066Y-17454775D01*
X122189066Y-17112151D01*
X122150705Y-16771680D01*
X122074463Y-16437646D01*
X122071872Y-16430242D01*
X121980092Y-16167948D01*
X121961302Y-16114248D01*
X121812642Y-15805553D01*
X121630355Y-15515445D01*
X121416732Y-15247570D01*
X121174459Y-15005297D01*
X120906584Y-14791674D01*
X120616476Y-14609387D01*
X120616468Y-14609383D01*
X120616461Y-14609379D01*
X120307781Y-14460727D01*
X120307779Y-14460726D01*
X119984386Y-14347566D01*
X119650347Y-14271323D01*
X119309879Y-14232963D01*
X119309878Y-14232963D01*
X118967254Y-14232963D01*
X118967252Y-14232963D01*
X118626784Y-14271323D01*
X118292745Y-14347566D01*
X117969352Y-14460726D01*
X117969350Y-14460727D01*
X117660670Y-14609379D01*
X117660658Y-14609386D01*
X117370547Y-14791674D01*
X117102674Y-15005296D01*
X116860399Y-15247571D01*
X116646777Y-15515444D01*
X116517357Y-15721414D01*
X116469139Y-15798155D01*
X116464489Y-15805555D01*
X116464482Y-15805567D01*
X116315830Y-16114247D01*
X116315829Y-16114249D01*
X116202669Y-16437642D01*
X116126426Y-16771681D01*
X116088066Y-17112149D01*
X113917545Y-17112149D01*
X114537526Y-16492168D01*
X114573277Y-16430246D01*
X114590251Y-16400847D01*
X114590251Y-16400845D01*
X114590253Y-16400843D01*
X114617546Y-16298983D01*
X114617546Y-16193529D01*
X114590253Y-16091669D01*
X114537527Y-16000344D01*
X114537524Y-16000341D01*
X114537523Y-16000339D01*
X114462960Y-15925778D01*
X114462954Y-15925773D01*
X114371637Y-15873051D01*
X114371639Y-15873051D01*
X114332115Y-15862461D01*
X114269774Y-15845757D01*
X114164321Y-15845757D01*
X114096413Y-15863952D01*
X114062459Y-15873050D01*
X113971135Y-15925776D01*
X109896564Y-20000347D01*
X109843842Y-20091663D01*
X109839947Y-20106199D01*
X109817875Y-20188578D01*
X109816548Y-20193529D01*
X109816548Y-20298984D01*
X109840163Y-20387121D01*
X109843529Y-20413891D01*
X109768868Y-26848549D01*
X109765502Y-26873018D01*
X109761667Y-26887336D01*
X109761667Y-26992790D01*
X109785736Y-27082620D01*
X109788961Y-27094654D01*
X109841683Y-27185970D01*
X109841685Y-27185972D01*
X109841687Y-27185975D01*
X111416254Y-28760542D01*
X111416256Y-28760543D01*
X111416258Y-28760545D01*
X111507575Y-28813267D01*
X111507573Y-28813267D01*
X111507577Y-28813268D01*
X111507579Y-28813269D01*
X111609439Y-28840562D01*
X111615620Y-28840562D01*
X111641242Y-28843935D01*
X111673439Y-28852562D01*
X118019266Y-28852562D01*
X118077457Y-28871469D01*
X118089270Y-28881558D01*
X119311071Y-30103359D01*
X119338848Y-30157876D01*
X119340067Y-30173363D01*
X119340067Y-34597687D01*
X119321160Y-34655878D01*
X119299616Y-34677217D01*
X119299753Y-34677400D01*
X119298817Y-34678099D01*
X119298800Y-34678112D01*
X119293031Y-34682427D01*
X119290895Y-34684024D01*
X119272041Y-34698840D01*
X119264443Y-34705110D01*
X119246297Y-34720829D01*
X119239049Y-34727415D01*
X119221716Y-34743941D01*
X119214756Y-34750901D01*
X119198185Y-34768281D01*
X119191605Y-34775520D01*
X119175907Y-34793643D01*
X119169636Y-34801244D01*
X119165480Y-34806533D01*
X119114655Y-34840598D01*
X119053513Y-34838283D01*
X119005410Y-34800471D01*
X119001839Y-34794728D01*
X118993858Y-34780847D01*
X118993849Y-34780833D01*
X118993838Y-34780813D01*
X118988716Y-34772384D01*
X118988711Y-34772376D01*
X118988709Y-34772372D01*
X118970501Y-34743970D01*
X118964972Y-34735785D01*
X118945456Y-34708341D01*
X118945453Y-34708337D01*
X118945447Y-34708328D01*
X118939552Y-34700446D01*
X118918789Y-34674024D01*
X118912528Y-34666438D01*
X118890514Y-34641025D01*
X118883942Y-34633793D01*
X118860781Y-34609500D01*
X118853794Y-34602513D01*
X118829509Y-34579360D01*
X118822277Y-34572788D01*
X118796864Y-34550774D01*
X118789285Y-34544520D01*
X118781085Y-34538075D01*
X118747016Y-34487252D01*
X118743259Y-34460144D01*
X118743643Y-34049097D01*
X118743856Y-33821691D01*
X118745828Y-33764145D01*
X118743918Y-33755897D01*
X118743926Y-33747439D01*
X118729494Y-33693378D01*
X118728723Y-33690282D01*
X118716097Y-33635758D01*
X118712119Y-33628288D01*
X118709937Y-33620114D01*
X118681202Y-33570236D01*
X118654151Y-33519441D01*
X118654150Y-33519439D01*
X118650383Y-33514166D01*
X118650565Y-33514035D01*
X118648279Y-33510944D01*
X118648102Y-33511080D01*
X118644158Y-33505931D01*
X118644154Y-33505927D01*
X118644152Y-33505923D01*
X118604585Y-33466282D01*
X118602374Y-33463991D01*
X114709814Y-29295283D01*
X114705465Y-29287749D01*
X114664927Y-29247211D01*
X114625811Y-29205320D01*
X114625809Y-29205318D01*
X114620803Y-29201198D01*
X114620920Y-29201055D01*
X114617541Y-29198369D01*
X114617430Y-29198515D01*
X114612281Y-29194564D01*
X114564095Y-29166744D01*
X114562617Y-29165890D01*
X114514006Y-29135560D01*
X114505690Y-29133023D01*
X114498161Y-29128676D01*
X114498152Y-29128673D01*
X114498151Y-29128672D01*
X114495430Y-29127943D01*
X114444400Y-29114268D01*
X114444400Y-29114269D01*
X114442769Y-29113832D01*
X114387954Y-29097113D01*
X114379259Y-29096815D01*
X114370858Y-29094564D01*
X114315245Y-29094564D01*
X114311856Y-29094506D01*
X114256244Y-29092600D01*
X114249785Y-29093227D01*
X114249767Y-29093042D01*
X114236457Y-29094564D01*
X110361455Y-29094564D01*
X110303264Y-29075657D01*
X110296956Y-29070670D01*
X109142035Y-28078858D01*
X108761458Y-27752030D01*
X108729631Y-27699776D01*
X108726958Y-27676820D01*
X108727083Y-27560117D01*
X108734619Y-20477395D01*
X108753588Y-20419226D01*
X108763609Y-20407504D01*
X112617546Y-16553569D01*
X112683438Y-16439442D01*
X112717547Y-16312147D01*
X112717547Y-16180364D01*
X112683438Y-16053070D01*
X112657196Y-16007617D01*
X112617549Y-15938946D01*
X112617547Y-15938944D01*
X112617546Y-15938942D01*
X112524361Y-15845757D01*
X112524358Y-15845755D01*
X112524356Y-15845753D01*
X112410236Y-15779866D01*
X112410232Y-15779864D01*
X112282941Y-15745756D01*
X112282939Y-15745756D01*
X112151156Y-15745756D01*
X112151153Y-15745756D01*
X112023862Y-15779864D01*
X112023858Y-15779866D01*
X111909738Y-15845753D01*
X111909737Y-15845754D01*
X107816545Y-19938944D01*
X107816544Y-19938945D01*
X107750657Y-20053064D01*
X107716548Y-20180364D01*
X87614021Y-20180364D01*
X87590255Y-20091668D01*
X87590253Y-20091665D01*
X87590253Y-20091663D01*
X87537531Y-20000347D01*
X87537527Y-20000342D01*
X87462961Y-19925775D01*
X87462961Y-19925776D01*
X83462962Y-15925777D01*
X83462959Y-15925775D01*
X83462958Y-15925774D01*
X83462957Y-15925773D01*
X83371640Y-15873051D01*
X83371642Y-15873051D01*
X83332118Y-15862461D01*
X83269777Y-15845757D01*
X83164323Y-15845757D01*
X83101981Y-15862461D01*
X83062458Y-15873051D01*
X82971142Y-15925773D01*
X82896567Y-16000348D01*
X82843845Y-16091665D01*
X82841362Y-16097661D01*
X82839530Y-16096902D01*
X82811146Y-16140586D01*
X82754019Y-16162499D01*
X82694923Y-16146648D01*
X82680452Y-16135194D01*
X82455689Y-15920325D01*
X82363206Y-15869668D01*
X82363200Y-15869665D01*
X82260753Y-15844672D01*
X82155325Y-15847044D01*
X82054104Y-15876623D01*
X81963988Y-15931391D01*
X81891121Y-16007613D01*
X81891119Y-16007615D01*
X81840460Y-16100102D01*
X81838588Y-16104927D01*
X81799905Y-16152333D01*
X81740746Y-16167948D01*
X81683707Y-16145809D01*
X81676302Y-16139117D01*
X81462962Y-15925777D01*
X81462959Y-15925775D01*
X81462957Y-15925773D01*
X81371640Y-15873051D01*
X81371642Y-15873051D01*
X81332118Y-15862461D01*
X81269777Y-15845757D01*
X81164323Y-15845757D01*
X81101981Y-15862461D01*
X81062458Y-15873051D01*
X80971142Y-15925773D01*
X80896567Y-16000348D01*
X80843845Y-16091664D01*
X80837794Y-16114247D01*
X80816551Y-16193529D01*
X80816551Y-16298983D01*
X80840620Y-16388813D01*
X80843845Y-16400847D01*
X80896567Y-16492163D01*
X80896569Y-16492165D01*
X80896571Y-16492168D01*
X84787556Y-20383153D01*
X84815332Y-20437668D01*
X84816551Y-20453155D01*
X84816551Y-26039355D01*
X84797644Y-26097546D01*
X84787555Y-26109359D01*
X83396652Y-27500261D01*
X83369625Y-27519442D01*
X83363266Y-27522506D01*
X83337381Y-27535762D01*
X83328606Y-27540529D01*
X83303486Y-27554974D01*
X83295032Y-27560111D01*
X83270671Y-27575728D01*
X83262488Y-27581255D01*
X83238957Y-27597988D01*
X83231077Y-27603880D01*
X83208442Y-27621669D01*
X83200849Y-27627936D01*
X83200848Y-27627937D01*
X83179077Y-27646795D01*
X83171820Y-27653391D01*
X83171795Y-27653414D01*
X83151006Y-27673234D01*
X83144048Y-27680191D01*
X83124171Y-27701040D01*
X83117593Y-27708277D01*
X83098740Y-27730041D01*
X83092491Y-27737614D01*
X83074664Y-27760299D01*
X83068763Y-27768191D01*
X83052050Y-27791693D01*
X83046508Y-27799897D01*
X83046333Y-27800172D01*
X83046311Y-27800189D01*
X83045852Y-27800870D01*
X83045648Y-27800732D01*
X82999018Y-27838965D01*
X82962980Y-27845757D01*
X78269777Y-27845757D01*
X78164323Y-27845757D01*
X78101981Y-27862461D01*
X78062458Y-27873051D01*
X77971142Y-27925773D01*
X77971141Y-27925774D01*
X75467109Y-30429805D01*
X75412592Y-30457582D01*
X75377281Y-30456796D01*
X75374098Y-30456145D01*
X75344553Y-30450869D01*
X75334319Y-30449306D01*
X75304300Y-30445492D01*
X75293995Y-30444446D01*
X75263499Y-30442127D01*
X75253111Y-30441600D01*
X75222264Y-30440821D01*
X75222248Y-30440821D01*
X75211855Y-30440821D01*
X75211839Y-30440821D01*
X75180988Y-30441601D01*
X75170602Y-30442127D01*
X75140105Y-30444446D01*
X75129800Y-30445492D01*
X75099781Y-30449306D01*
X75089547Y-30450869D01*
X75060004Y-30456145D01*
X75049921Y-30458207D01*
X75026703Y-30463566D01*
X75020886Y-30464909D01*
X75013818Y-30466727D01*
X75010950Y-30467465D01*
X74982485Y-30475548D01*
X74972762Y-30478571D01*
X74944906Y-30487996D01*
X74935377Y-30491484D01*
X74908127Y-30502228D01*
X74898849Y-30506152D01*
X74872254Y-30518176D01*
X74863237Y-30522520D01*
X74837401Y-30535753D01*
X74837378Y-30535765D01*
X74828622Y-30540521D01*
X74828612Y-30540527D01*
X74803494Y-30554968D01*
X74795021Y-30560116D01*
X74770667Y-30575730D01*
X74762479Y-30581261D01*
X74738994Y-30597961D01*
X74731094Y-30603869D01*
X74708409Y-30621696D01*
X74700836Y-30627945D01*
X74679072Y-30646798D01*
X74671835Y-30653376D01*
X74650986Y-30673253D01*
X74644029Y-30680211D01*
X74624175Y-30701036D01*
X74617610Y-30708258D01*
X74598738Y-30730044D01*
X74592491Y-30737614D01*
X74574664Y-30760299D01*
X74568763Y-30768191D01*
X74552050Y-30791693D01*
X74546523Y-30799876D01*
X74530906Y-30824237D01*
X74525769Y-30832691D01*
X74511324Y-30857811D01*
X74506557Y-30866586D01*
X74493305Y-30892462D01*
X74488963Y-30901476D01*
X74476945Y-30928059D01*
X74473032Y-30937312D01*
X74462287Y-30964562D01*
X74458793Y-30974106D01*
X74449362Y-31001980D01*
X74446343Y-31011690D01*
X74438260Y-31040155D01*
X74435701Y-31050104D01*
X74429004Y-31079120D01*
X74426940Y-31089209D01*
X74421662Y-31118767D01*
X74420104Y-31128968D01*
X74416290Y-31158979D01*
X74415238Y-31169346D01*
X74412921Y-31199813D01*
X74412396Y-31210196D01*
X74411617Y-31241047D01*
X69639066Y-31241047D01*
X69639066Y-17104749D01*
X71020866Y-17104749D01*
X71020866Y-17447376D01*
X71059226Y-17787844D01*
X71135469Y-18121883D01*
X71248629Y-18445276D01*
X71248630Y-18445278D01*
X71397282Y-18753958D01*
X71397286Y-18753965D01*
X71397290Y-18753973D01*
X71579577Y-19044081D01*
X71793200Y-19311956D01*
X72035473Y-19554229D01*
X72303348Y-19767852D01*
X72593456Y-19950139D01*
X72593467Y-19950144D01*
X72593470Y-19950146D01*
X72696026Y-19999534D01*
X72902151Y-20098799D01*
X73053119Y-20151624D01*
X73225545Y-20211959D01*
X73225548Y-20211959D01*
X73225549Y-20211960D01*
X73559583Y-20288202D01*
X73900054Y-20326563D01*
X73900055Y-20326563D01*
X74242677Y-20326563D01*
X74242678Y-20326563D01*
X74583149Y-20288202D01*
X74917183Y-20211960D01*
X75240581Y-20098799D01*
X75549276Y-19950139D01*
X75839384Y-19767852D01*
X76107259Y-19554229D01*
X76349532Y-19311956D01*
X76563155Y-19044081D01*
X76745442Y-18753973D01*
X76894102Y-18445278D01*
X77007263Y-18121880D01*
X77083505Y-17787846D01*
X77121866Y-17447375D01*
X77121866Y-17104751D01*
X77083505Y-16764280D01*
X77007263Y-16430246D01*
X76961332Y-16298983D01*
X76919825Y-16180361D01*
X76894102Y-16106848D01*
X76779881Y-15869666D01*
X76745449Y-15798167D01*
X76745447Y-15798164D01*
X76745442Y-15798153D01*
X76563155Y-15508045D01*
X76349532Y-15240170D01*
X76107259Y-14997897D01*
X75839384Y-14784274D01*
X75549276Y-14601987D01*
X75549268Y-14601983D01*
X75549261Y-14601979D01*
X75240581Y-14453327D01*
X75240579Y-14453326D01*
X74917186Y-14340166D01*
X74583147Y-14263923D01*
X74242679Y-14225563D01*
X74242678Y-14225563D01*
X73900054Y-14225563D01*
X73900052Y-14225563D01*
X73559584Y-14263923D01*
X73225545Y-14340166D01*
X72902152Y-14453326D01*
X72902150Y-14453327D01*
X72593470Y-14601979D01*
X72593458Y-14601986D01*
X72303347Y-14784274D01*
X72035474Y-14997896D01*
X71793199Y-15240171D01*
X71579577Y-15508044D01*
X71574927Y-15515445D01*
X71408781Y-15779866D01*
X71397289Y-15798155D01*
X71397282Y-15798167D01*
X71248630Y-16106847D01*
X71248629Y-16106849D01*
X71135469Y-16430242D01*
X71059226Y-16764281D01*
X71020866Y-17104749D01*
X69639066Y-17104749D01*
X69639066Y-12882963D01*
X69657973Y-12824772D01*
X69707473Y-12788808D01*
X69738066Y-12783963D01*
X123539066Y-12783963D01*
X123597257Y-12802870D01*
G37*
%TD.AperFunction*%
%TD*%
M02*
