%TF.GenerationSoftware,KiCad,Pcbnew,10.0.3*%
%TF.CreationDate,2026-08-02T18:57:04-04:00*%
%TF.ProjectId,TVBGONE,54564247-4f4e-4452-9e6b-696361645f70,rev?*%
%TF.SameCoordinates,Original*%
%TF.FileFunction,Copper,L2,Bot*%
%TF.FilePolarity,Positive*%
%FSLAX46Y46*%
G04 Gerber Fmt 4.6, Leading zero omitted, Abs format (unit mm)*
G04 Created by KiCad (PCBNEW 10.0.3) date 2026-08-02 18:57:04*
%MOMM*%
%LPD*%
G01*
G04 APERTURE LIST*
%TA.AperFunction,ComponentPad*%
%ADD10C,5.700000*%
%TD*%
G04 APERTURE END LIST*
D10*
%TO.P,,1*%
%TO.N,N/C*%
X119138566Y-17283463D03*
%TD*%
%TO.P,,1*%
%TO.N,N/C*%
X74138566Y-92283463D03*
%TD*%
%TO.P,,1*%
%TO.N,N/C*%
X119138566Y-92283463D03*
%TD*%
%TO.P,,1*%
%TO.N,N/C*%
X74071366Y-17276063D03*
%TD*%
%TA.AperFunction,Conductor*%
%TO.N,Earth*%
G36*
X123597257Y-12802870D02*
G01*
X123633221Y-12852370D01*
X123638066Y-12882963D01*
X123638066Y-96683963D01*
X123619159Y-96742154D01*
X123569659Y-96778118D01*
X123539066Y-96782963D01*
X69738066Y-96782963D01*
X69679875Y-96764056D01*
X69643911Y-96714556D01*
X69639066Y-96683963D01*
X69639066Y-92112149D01*
X71088066Y-92112149D01*
X71088066Y-92454776D01*
X71126426Y-92795244D01*
X71202669Y-93129283D01*
X71315829Y-93452676D01*
X71315830Y-93452678D01*
X71464482Y-93761358D01*
X71464486Y-93761365D01*
X71464490Y-93761373D01*
X71646777Y-94051481D01*
X71860400Y-94319356D01*
X72102673Y-94561629D01*
X72370548Y-94775252D01*
X72660656Y-94957539D01*
X72660667Y-94957544D01*
X72660670Y-94957546D01*
X72763226Y-95006934D01*
X72969351Y-95106199D01*
X73120319Y-95159024D01*
X73292745Y-95219359D01*
X73292748Y-95219359D01*
X73292749Y-95219360D01*
X73626783Y-95295602D01*
X73967254Y-95333963D01*
X73967255Y-95333963D01*
X74309877Y-95333963D01*
X74309878Y-95333963D01*
X74650349Y-95295602D01*
X74984383Y-95219360D01*
X75307781Y-95106199D01*
X75616476Y-94957539D01*
X75906584Y-94775252D01*
X76174459Y-94561629D01*
X76416732Y-94319356D01*
X76630355Y-94051481D01*
X76812642Y-93761373D01*
X76961302Y-93452678D01*
X77074463Y-93129280D01*
X77150705Y-92795246D01*
X77189066Y-92454775D01*
X77189066Y-92112151D01*
X77189066Y-92112149D01*
X116088066Y-92112149D01*
X116088066Y-92454776D01*
X116126426Y-92795244D01*
X116202669Y-93129283D01*
X116315829Y-93452676D01*
X116315830Y-93452678D01*
X116464482Y-93761358D01*
X116464486Y-93761365D01*
X116464490Y-93761373D01*
X116646777Y-94051481D01*
X116860400Y-94319356D01*
X117102673Y-94561629D01*
X117370548Y-94775252D01*
X117660656Y-94957539D01*
X117660667Y-94957544D01*
X117660670Y-94957546D01*
X117763226Y-95006934D01*
X117969351Y-95106199D01*
X118120319Y-95159024D01*
X118292745Y-95219359D01*
X118292748Y-95219359D01*
X118292749Y-95219360D01*
X118626783Y-95295602D01*
X118967254Y-95333963D01*
X118967255Y-95333963D01*
X119309877Y-95333963D01*
X119309878Y-95333963D01*
X119650349Y-95295602D01*
X119984383Y-95219360D01*
X120307781Y-95106199D01*
X120616476Y-94957539D01*
X120906584Y-94775252D01*
X121174459Y-94561629D01*
X121416732Y-94319356D01*
X121630355Y-94051481D01*
X121812642Y-93761373D01*
X121961302Y-93452678D01*
X122074463Y-93129280D01*
X122150705Y-92795246D01*
X122189066Y-92454775D01*
X122189066Y-92112151D01*
X122150705Y-91771680D01*
X122074463Y-91437646D01*
X121961302Y-91114248D01*
X121812642Y-90805553D01*
X121630355Y-90515445D01*
X121416732Y-90247570D01*
X121174459Y-90005297D01*
X120906584Y-89791674D01*
X120616476Y-89609387D01*
X120616468Y-89609383D01*
X120616461Y-89609379D01*
X120307781Y-89460727D01*
X120307779Y-89460726D01*
X119984386Y-89347566D01*
X119650347Y-89271323D01*
X119309879Y-89232963D01*
X119309878Y-89232963D01*
X118967254Y-89232963D01*
X118967252Y-89232963D01*
X118626784Y-89271323D01*
X118292745Y-89347566D01*
X117969352Y-89460726D01*
X117969350Y-89460727D01*
X117660670Y-89609379D01*
X117660658Y-89609386D01*
X117370547Y-89791674D01*
X117102674Y-90005296D01*
X116860399Y-90247571D01*
X116646777Y-90515444D01*
X116464489Y-90805555D01*
X116464482Y-90805567D01*
X116315830Y-91114247D01*
X116315829Y-91114249D01*
X116202669Y-91437642D01*
X116126426Y-91771681D01*
X116088066Y-92112149D01*
X77189066Y-92112149D01*
X77150705Y-91771680D01*
X77074463Y-91437646D01*
X76961302Y-91114248D01*
X76812642Y-90805553D01*
X76630355Y-90515445D01*
X76416732Y-90247570D01*
X76174459Y-90005297D01*
X75906584Y-89791674D01*
X75616476Y-89609387D01*
X75616468Y-89609383D01*
X75616461Y-89609379D01*
X75307781Y-89460727D01*
X75307779Y-89460726D01*
X74984386Y-89347566D01*
X74650347Y-89271323D01*
X74309879Y-89232963D01*
X74309878Y-89232963D01*
X73967254Y-89232963D01*
X73967252Y-89232963D01*
X73626784Y-89271323D01*
X73292745Y-89347566D01*
X72969352Y-89460726D01*
X72969350Y-89460727D01*
X72660670Y-89609379D01*
X72660658Y-89609386D01*
X72370547Y-89791674D01*
X72102674Y-90005296D01*
X71860399Y-90247571D01*
X71646777Y-90515444D01*
X71464489Y-90805555D01*
X71464482Y-90805567D01*
X71315830Y-91114247D01*
X71315829Y-91114249D01*
X71202669Y-91437642D01*
X71126426Y-91771681D01*
X71088066Y-92112149D01*
X69639066Y-92112149D01*
X69639066Y-81336929D01*
X92137977Y-81336929D01*
X92137977Y-81729996D01*
X92176504Y-82121175D01*
X92253189Y-82506702D01*
X92367288Y-82882837D01*
X92517711Y-83245989D01*
X92517724Y-83246016D01*
X92703005Y-83592654D01*
X92821560Y-83770083D01*
X92921387Y-83919485D01*
X93170750Y-84223335D01*
X93448694Y-84501279D01*
X93752544Y-84750642D01*
X93915958Y-84859831D01*
X94079374Y-84969023D01*
X94426012Y-85154304D01*
X94426031Y-85154314D01*
X94789183Y-85304737D01*
X94789185Y-85304737D01*
X94789191Y-85304740D01*
X95165326Y-85418839D01*
X95165328Y-85418839D01*
X95165330Y-85418840D01*
X95550850Y-85495524D01*
X95942030Y-85534052D01*
X95942033Y-85534052D01*
X96335099Y-85534052D01*
X96335102Y-85534052D01*
X96726282Y-85495524D01*
X97111802Y-85418840D01*
X97205838Y-85390314D01*
X97487940Y-85304740D01*
X97487942Y-85304738D01*
X97487949Y-85304737D01*
X97851101Y-85154314D01*
X98020489Y-85063774D01*
X98197757Y-84969023D01*
X98197760Y-84969021D01*
X98524588Y-84750642D01*
X98828438Y-84501279D01*
X99106382Y-84223335D01*
X99355745Y-83919485D01*
X99574124Y-83592657D01*
X99606424Y-83532229D01*
X99759407Y-83246016D01*
X99759417Y-83245998D01*
X99909840Y-82882846D01*
X100023943Y-82506699D01*
X100100627Y-82121179D01*
X100139155Y-81729999D01*
X100139155Y-81336927D01*
X100100627Y-80945747D01*
X100023943Y-80560227D01*
X100023942Y-80560223D01*
X99909843Y-80184088D01*
X99759420Y-79820936D01*
X99759417Y-79820928D01*
X99759407Y-79820909D01*
X99574126Y-79474271D01*
X99455572Y-79296843D01*
X99355745Y-79147441D01*
X99106382Y-78843591D01*
X98828438Y-78565647D01*
X98524588Y-78316284D01*
X98442881Y-78261689D01*
X98197757Y-78097902D01*
X97851119Y-77912621D01*
X97851107Y-77912615D01*
X97851101Y-77912612D01*
X97851096Y-77912609D01*
X97851092Y-77912608D01*
X97487940Y-77762185D01*
X97111805Y-77648086D01*
X96820665Y-77590175D01*
X96726282Y-77571402D01*
X96726280Y-77571401D01*
X96440319Y-77543237D01*
X96335102Y-77532874D01*
X95942030Y-77532874D01*
X95826449Y-77544257D01*
X95550853Y-77571401D01*
X95165326Y-77648086D01*
X94789191Y-77762185D01*
X94426039Y-77912608D01*
X94426012Y-77912621D01*
X94079374Y-78097902D01*
X93752542Y-78316285D01*
X93448699Y-78565642D01*
X93170745Y-78843596D01*
X92921388Y-79147439D01*
X92703005Y-79474271D01*
X92517724Y-79820909D01*
X92517711Y-79820936D01*
X92367288Y-80184088D01*
X92253189Y-80560223D01*
X92176504Y-80945750D01*
X92137977Y-81336929D01*
X69639066Y-81336929D01*
X69639066Y-37448370D01*
X80886066Y-37448370D01*
X80886066Y-53105155D01*
X80916145Y-53217414D01*
X80920175Y-53232453D01*
X80986062Y-53346572D01*
X80986064Y-53346574D01*
X80986066Y-53346577D01*
X81079252Y-53439763D01*
X81079254Y-53439764D01*
X81079256Y-53439766D01*
X81193376Y-53505653D01*
X81193374Y-53505653D01*
X81193378Y-53505654D01*
X81193380Y-53505655D01*
X81320674Y-53539763D01*
X81320676Y-53539763D01*
X111448086Y-53539763D01*
X111448088Y-53539763D01*
X111575382Y-53505655D01*
X111575384Y-53505653D01*
X111575386Y-53505653D01*
X111689505Y-53439766D01*
X111689505Y-53439765D01*
X111689510Y-53439763D01*
X111782696Y-53346577D01*
X111848588Y-53232449D01*
X111882696Y-53105155D01*
X111882696Y-37448370D01*
X111848588Y-37321076D01*
X111848586Y-37321073D01*
X111848586Y-37321071D01*
X111782699Y-37206952D01*
X111782697Y-37206950D01*
X111782696Y-37206948D01*
X111689510Y-37113762D01*
X111689507Y-37113760D01*
X111689505Y-37113758D01*
X111575385Y-37047871D01*
X111575387Y-37047871D01*
X111525995Y-37034637D01*
X111448088Y-37013762D01*
X81452458Y-37013762D01*
X81320674Y-37013762D01*
X81242766Y-37034637D01*
X81193375Y-37047871D01*
X81079256Y-37113758D01*
X80986062Y-37206952D01*
X80920175Y-37321071D01*
X80920174Y-37321076D01*
X80886066Y-37448370D01*
X69639066Y-37448370D01*
X69639066Y-17104749D01*
X71020866Y-17104749D01*
X71020866Y-17447376D01*
X71059226Y-17787844D01*
X71135469Y-18121883D01*
X71248629Y-18445276D01*
X71248630Y-18445278D01*
X71397282Y-18753958D01*
X71397286Y-18753965D01*
X71397290Y-18753973D01*
X71579577Y-19044081D01*
X71793200Y-19311956D01*
X72035473Y-19554229D01*
X72303348Y-19767852D01*
X72593456Y-19950139D01*
X72593467Y-19950144D01*
X72593470Y-19950146D01*
X72696026Y-19999534D01*
X72902151Y-20098799D01*
X73053119Y-20151624D01*
X73225545Y-20211959D01*
X73225548Y-20211959D01*
X73225549Y-20211960D01*
X73559583Y-20288202D01*
X73900054Y-20326563D01*
X73900055Y-20326563D01*
X74242677Y-20326563D01*
X74242678Y-20326563D01*
X74583149Y-20288202D01*
X74917183Y-20211960D01*
X75240581Y-20098799D01*
X75549276Y-19950139D01*
X75839384Y-19767852D01*
X76107259Y-19554229D01*
X76349532Y-19311956D01*
X76563155Y-19044081D01*
X76745442Y-18753973D01*
X76894102Y-18445278D01*
X77007263Y-18121880D01*
X77083505Y-17787846D01*
X77121866Y-17447375D01*
X77121866Y-17112149D01*
X116088066Y-17112149D01*
X116088066Y-17454776D01*
X116126426Y-17795244D01*
X116202669Y-18129283D01*
X116315829Y-18452676D01*
X116315830Y-18452678D01*
X116464482Y-18761358D01*
X116464486Y-18761365D01*
X116464490Y-18761373D01*
X116646777Y-19051481D01*
X116860400Y-19319356D01*
X117102673Y-19561629D01*
X117370548Y-19775252D01*
X117660656Y-19957539D01*
X117660667Y-19957544D01*
X117660670Y-19957546D01*
X117763226Y-20006934D01*
X117969351Y-20106199D01*
X118120319Y-20159024D01*
X118292745Y-20219359D01*
X118292748Y-20219359D01*
X118292749Y-20219360D01*
X118626783Y-20295602D01*
X118967254Y-20333963D01*
X118967255Y-20333963D01*
X119309877Y-20333963D01*
X119309878Y-20333963D01*
X119650349Y-20295602D01*
X119984383Y-20219360D01*
X120307781Y-20106199D01*
X120616476Y-19957539D01*
X120906584Y-19775252D01*
X121174459Y-19561629D01*
X121416732Y-19319356D01*
X121630355Y-19051481D01*
X121812642Y-18761373D01*
X121961302Y-18452678D01*
X122074463Y-18129280D01*
X122150705Y-17795246D01*
X122189066Y-17454775D01*
X122189066Y-17112151D01*
X122150705Y-16771680D01*
X122074463Y-16437646D01*
X122071872Y-16430242D01*
X121961302Y-16114249D01*
X121961302Y-16114248D01*
X121812642Y-15805553D01*
X121630355Y-15515445D01*
X121416732Y-15247570D01*
X121174459Y-15005297D01*
X120906584Y-14791674D01*
X120616476Y-14609387D01*
X120616468Y-14609383D01*
X120616461Y-14609379D01*
X120307781Y-14460727D01*
X120307779Y-14460726D01*
X119984386Y-14347566D01*
X119650347Y-14271323D01*
X119309879Y-14232963D01*
X119309878Y-14232963D01*
X118967254Y-14232963D01*
X118967252Y-14232963D01*
X118626784Y-14271323D01*
X118292745Y-14347566D01*
X117969352Y-14460726D01*
X117969350Y-14460727D01*
X117660670Y-14609379D01*
X117660658Y-14609386D01*
X117370547Y-14791674D01*
X117102674Y-15005296D01*
X116860399Y-15247571D01*
X116646777Y-15515444D01*
X116517357Y-15721414D01*
X116469139Y-15798155D01*
X116464489Y-15805555D01*
X116464482Y-15805567D01*
X116315830Y-16114247D01*
X116315829Y-16114249D01*
X116202669Y-16437642D01*
X116126426Y-16771681D01*
X116088066Y-17112149D01*
X77121866Y-17112149D01*
X77121866Y-17104751D01*
X77083505Y-16764280D01*
X77007263Y-16430246D01*
X76894102Y-16106848D01*
X76794837Y-15900723D01*
X76745449Y-15798167D01*
X76745447Y-15798164D01*
X76745442Y-15798153D01*
X76563155Y-15508045D01*
X76349532Y-15240170D01*
X76107259Y-14997897D01*
X75839384Y-14784274D01*
X75549276Y-14601987D01*
X75549268Y-14601983D01*
X75549261Y-14601979D01*
X75240581Y-14453327D01*
X75240579Y-14453326D01*
X74917186Y-14340166D01*
X74583147Y-14263923D01*
X74242679Y-14225563D01*
X74242678Y-14225563D01*
X73900054Y-14225563D01*
X73900052Y-14225563D01*
X73559584Y-14263923D01*
X73225545Y-14340166D01*
X72902152Y-14453326D01*
X72902150Y-14453327D01*
X72593470Y-14601979D01*
X72593458Y-14601986D01*
X72303347Y-14784274D01*
X72035474Y-14997896D01*
X71793199Y-15240171D01*
X71579577Y-15508044D01*
X71397289Y-15798155D01*
X71397282Y-15798167D01*
X71248630Y-16106847D01*
X71248629Y-16106849D01*
X71135469Y-16430242D01*
X71059226Y-16764281D01*
X71020866Y-17104749D01*
X69639066Y-17104749D01*
X69639066Y-12882963D01*
X69657973Y-12824772D01*
X69707473Y-12788808D01*
X69738066Y-12783963D01*
X123539066Y-12783963D01*
X123597257Y-12802870D01*
G37*
%TD.AperFunction*%
%TD*%
M02*
